{"glyphs":{"0":{"ha":711,"x_min":0,"x_max":0,"o":"m 140 68 b 355 -15 186 12 258 -15 b 571 68 453 -15 525 12 b 642 315 617 123 642 205 l 642 654 b 571 892 642 760 617 838 b 355 974 525 947 453 974 b 142 892 262 974 191 947 b 69 654 94 838 69 758 l 69 315 b 140 68 69 205 94 123 z m 438 186 b 355 142 423 157 396 142 b 274 186 316 142 289 157 b 252 331 259 214 252 262 l 252 628 b 274 772 252 697 260 745 b 355 814 288 799 315 814 b 438 772 396 814 423 799 b 460 628 453 745 460 697 l 460 331 b 438 186 460 262 453 214 z "},"1":{"ha":483,"x_min":0,"x_max":0,"o":"m 212 757 l 212 0 l 393 0 l 393 959 l 212 959 l 50 837 l 50 640 z "},"2":{"ha":684,"x_min":0,"x_max":0,"o":"m 66 144 l 66 0 l 623 0 l 623 160 l 296 160 l 534 469 b 600 578 563 506 585 543 b 623 693 614 613 623 651 l 623 716 b 589 846 623 764 612 807 b 491 939 566 886 533 916 b 345 974 449 962 400 974 b 194 940 288 974 236 962 b 96 849 152 918 119 888 b 62 715 73 810 62 765 l 62 682 l 239 682 l 239 704 b 266 789 239 741 248 769 b 338 819 283 810 307 819 b 411 791 369 819 393 810 b 438 711 429 772 438 745 l 438 692 b 385 557 438 650 420 605 z "},"3":{"ha":700,"x_min":0,"x_max":0,"o":"m 137 49 b 346 -15 187 5 256 -15 b 494 19 400 -15 450 -4 b 594 115 537 42 570 73 b 631 263 618 157 631 206 l 631 289 b 598 426 631 343 620 388 b 503 510 576 464 545 492 b 586 589 540 529 567 556 b 616 700 605 621 616 658 l 616 720 b 543 905 616 798 590 859 b 345 974 495 951 429 974 b 142 906 259 974 191 951 b 69 718 94 861 69 798 l 69 694 l 236 694 l 236 718 b 263 792 236 749 245 774 b 338 819 281 810 305 819 b 412 789 369 819 395 810 b 439 707 430 769 439 742 l 439 686 b 410 601 439 650 429 621 b 328 571 391 581 363 571 l 281 571 l 281 416 l 330 416 b 422 384 370 416 400 406 b 454 288 444 362 454 330 l 454 263 b 425 172 454 225 445 194 b 343 138 404 151 377 138 b 260 164 307 138 279 146 b 232 240 241 182 232 206 l 232 262 l 62 262 l 62 232 b 137 49 62 153 87 92 z "},"4":{"ha":723,"x_min":0,"x_max":0,"o":"m 675 153 l 675 312 l 597 312 l 597 537 l 415 537 l 415 312 l 231 312 l 505 959 l 323 959 l 49 312 l 49 153 l 415 153 l 415 0 l 597 0 l 597 153 z "},"5":{"ha":689,"x_min":0,"x_max":0,"o":"m 142 47 b 340 -15 191 5 258 -15 b 547 58 429 -15 496 9 b 621 264 597 107 621 176 l 621 354 b 559 559 621 444 600 511 b 377 631 518 606 457 631 b 240 586 323 631 277 616 l 240 803 l 601 803 l 601 959 l 83 959 l 83 412 l 240 412 b 339 477 259 456 293 477 b 419 445 376 477 401 467 b 445 345 437 423 445 389 l 445 273 b 419 172 445 229 437 195 b 340 138 401 149 376 138 b 264 164 308 138 283 148 b 236 233 245 180 236 203 l 236 241 l 69 241 l 69 221 b 142 47 69 146 94 90 z "},"6":{"ha":716,"x_min":0,"x_max":0,"o":"m 141 60 b 358 -15 194 9 266 -15 b 572 61 448 -15 518 9 b 654 274 627 113 654 183 l 654 317 b 587 513 654 400 632 465 b 407 585 543 560 481 585 b 338 571 381 585 358 581 l 536 959 l 345 959 l 125 532 b 79 419 104 491 90 453 b 62 311 68 385 62 349 l 62 269 b 141 60 62 179 88 110 z m 442 172 b 358 138 422 151 393 138 b 275 172 323 138 296 151 b 245 264 255 194 245 225 l 245 309 b 275 400 245 349 255 378 b 358 433 296 422 323 433 b 442 400 393 433 422 422 b 472 308 463 378 472 347 l 472 266 b 442 172 472 227 463 194 z "},"7":{"ha":633,"x_min":0,"x_max":0,"o":"m 593 959 l 42 959 l 42 800 l 415 800 l 118 0 l 301 0 l 593 800 z "},"8":{"ha":728,"x_min":0,"x_max":0,"o":"m 213 19 b 363 -15 258 -4 307 -15 b 515 19 420 -15 471 -4 b 621 117 560 42 595 75 b 659 266 647 159 659 209 l 659 297 b 629 415 659 339 650 378 b 544 503 609 452 581 481 b 616 578 572 521 597 545 b 643 688 635 610 643 647 l 643 712 b 610 844 643 760 632 804 b 513 939 589 883 555 916 b 365 974 471 962 422 974 b 218 939 308 974 260 962 b 122 844 176 916 145 883 b 88 712 99 804 88 760 l 88 688 b 114 576 88 646 96 609 b 186 503 132 544 156 521 b 100 416 149 481 121 453 b 69 296 80 380 69 339 l 69 264 b 107 117 69 209 81 159 b 213 19 133 75 168 42 z m 452 174 b 365 138 430 151 401 138 b 278 175 328 138 300 152 b 245 267 256 198 245 229 l 245 300 b 279 391 245 336 258 368 b 365 425 301 414 330 425 b 452 391 401 425 430 414 b 484 300 473 368 484 336 l 484 267 b 452 174 484 228 473 197 z m 441 606 b 365 575 422 586 396 575 b 290 605 334 575 309 585 b 263 686 271 625 263 652 l 263 712 b 292 789 263 743 273 769 b 365 819 311 810 334 819 b 439 789 396 819 420 810 b 468 712 458 769 468 743 l 468 686 b 441 606 468 654 460 627 z "},"9":{"ha":716,"x_min":0,"x_max":0,"o":"m 380 388 l 180 0 l 372 0 l 591 426 b 639 540 612 467 628 505 b 654 647 650 575 654 610 l 654 690 b 575 899 654 780 628 849 b 358 974 522 949 450 974 b 144 898 269 974 198 949 b 62 685 90 846 62 776 l 62 640 b 130 445 62 557 85 492 b 309 373 175 397 235 373 b 380 388 335 373 359 378 z m 441 557 b 358 525 420 536 393 525 b 275 557 323 525 296 536 b 244 650 255 579 244 610 l 244 693 b 275 787 244 732 255 765 b 358 819 296 808 323 819 b 441 787 393 819 420 808 b 471 694 461 765 471 734 l 471 648 b 441 557 471 609 461 579 z "}," ":{"ha":317,"x_min":0,"x_max":0,"o":""},"!":{"ha":345,"x_min":0,"x_max":0,"o":"m 75 959 l 109 320 l 237 320 l 271 959 z m 81 180 l 81 0 l 264 0 l 264 180 z "},"'":{"ha":267,"x_min":0,"x_max":0,"o":"m 53 959 l 53 544 l 216 544 l 216 959 z "},"\"":{"ha":529,"x_min":0,"x_max":0,"o":"m 53 959 l 53 544 l 216 544 l 216 959 z m 315 959 l 315 544 l 476 544 l 476 959 z "},"#":{"ha":747,"x_min":0,"x_max":0,"o":"m 598 564 l 724 564 l 724 692 l 616 692 l 650 959 l 507 959 l 472 692 l 326 692 l 359 959 l 217 959 l 182 692 l 60 692 l 60 564 l 165 564 l 144 411 l 24 411 l 24 283 l 127 283 l 91 0 l 233 0 l 271 283 l 418 283 l 381 0 l 525 0 l 563 283 l 689 283 l 689 411 l 579 411 z m 456 564 l 435 411 l 288 411 l 308 564 z "},"$":{"ha":697,"x_min":0,"x_max":0,"o":"m 571 133 b 628 311 609 178 628 236 b 575 475 628 380 610 435 b 419 555 540 514 488 541 l 340 570 b 254 605 301 576 271 589 b 228 675 236 621 228 646 b 255 751 228 709 236 734 b 335 779 274 769 301 779 b 418 751 372 779 399 769 b 452 665 437 734 448 704 l 616 665 b 556 833 612 734 591 789 b 412 917 521 876 472 903 l 412 1028 l 270 1028 l 270 918 b 117 831 205 905 153 876 b 61 662 80 787 61 731 b 118 499 61 593 80 538 b 290 419 156 460 213 433 l 358 407 b 435 372 393 400 419 389 b 458 297 452 354 458 330 b 339 189 458 225 419 189 b 241 217 296 189 263 198 b 199 315 220 236 205 269 l 41 315 b 106 130 45 237 66 176 b 270 45 145 84 201 56 l 270 -83 l 412 -83 l 412 47 b 571 133 480 61 533 88 z "},"%":{"ha":1255,"x_min":0,"x_max":0,"o":"m 871 43 b 1012 -8 901 8 947 -8 b 1153 43 1076 -8 1123 8 b 1199 198 1183 79 1199 129 l 1199 396 b 1153 543 1199 461 1183 510 b 1012 591 1123 575 1076 591 b 873 543 951 591 906 575 b 825 396 841 510 825 461 l 825 198 b 871 43 825 129 841 79 z m 100 419 b 243 366 130 384 178 366 b 384 419 307 366 354 384 b 429 574 414 454 429 505 l 429 770 b 384 918 429 836 414 886 b 243 967 354 951 307 967 b 103 917 182 967 136 949 b 56 770 71 884 56 836 l 56 574 b 100 419 56 505 71 454 z m 826 966 l 292 0 l 427 0 l 964 966 z m 279 509 b 243 490 275 496 262 490 b 206 510 224 490 212 496 b 198 581 201 524 198 547 l 198 753 b 208 825 198 788 202 811 b 243 845 213 838 224 845 b 278 825 262 845 273 838 b 286 753 283 811 286 788 l 286 581 b 279 509 286 544 283 521 z m 1048 133 b 1012 115 1044 121 1031 115 b 975 134 993 115 981 121 b 968 206 970 148 968 172 l 968 378 b 977 450 968 414 971 437 b 1012 469 982 464 993 469 b 1048 450 1031 469 1043 464 b 1055 378 1054 437 1055 414 l 1055 206 b 1048 133 1055 170 1053 145 z "},"&":{"ha":830,"x_min":0,"x_max":0,"o":"m 736 149 b 680 184 718 149 699 160 l 652 221 l 768 365 l 659 461 l 564 342 l 444 505 b 566 633 502 553 543 597 b 600 753 589 670 600 711 b 571 864 600 793 590 830 b 488 944 552 898 524 925 b 366 974 453 963 411 974 b 247 945 321 974 282 964 b 163 865 212 926 183 899 b 132 751 142 831 132 793 b 155 655 132 718 140 686 b 233 529 170 624 195 582 b 102 385 171 477 127 430 b 62 237 76 340 62 290 b 129 54 62 161 84 100 b 316 -15 174 8 236 -15 b 444 9 363 -15 407 -7 b 551 94 480 26 517 54 l 556 85 b 623 18 581 52 604 30 b 700 0 642 5 667 0 l 766 0 l 766 149 z m 395 151 b 331 133 376 138 354 133 b 254 164 298 133 273 144 b 227 250 235 184 227 213 b 248 324 227 274 233 300 b 323 406 263 349 288 374 l 463 214 b 395 151 437 183 414 163 z m 313 818 b 368 841 327 833 346 841 b 420 818 389 841 407 833 b 442 758 434 803 442 783 b 425 697 442 736 437 716 b 355 625 412 678 389 654 b 305 705 330 662 313 688 b 293 758 297 723 293 741 b 313 818 293 783 300 803 z "},"(":{"ha":430,"x_min":0,"x_max":0,"o":"m 62 456 b 241 -117 62 251 122 60 l 368 -117 b 269 163 324 -28 292 65 b 233 456 245 260 233 358 b 267 749 233 553 244 651 b 368 1028 290 846 323 940 l 243 1028 b 62 456 122 854 62 665 z "},")":{"ha":430,"x_min":0,"x_max":0,"o":"m 163 163 b 62 -117 140 65 106 -28 l 189 -117 b 368 456 308 60 368 251 b 187 1028 368 665 308 854 l 62 1028 b 163 749 107 940 140 846 b 197 456 186 651 197 553 b 163 163 197 358 186 260 z "},"*":{"ha":524,"x_min":0,"x_max":0,"o":"m 214 675 l 214 540 l 309 540 l 309 674 l 416 613 l 461 688 l 349 751 l 460 815 l 418 890 l 309 827 l 309 959 l 214 959 l 214 829 l 106 890 l 62 815 l 174 751 l 62 688 l 106 613 z "},"+":{"ha":734,"x_min":0,"x_max":0,"o":"m 289 304 l 289 81 l 448 81 l 448 304 l 669 304 l 669 463 l 448 463 l 448 685 l 289 685 l 289 463 l 66 463 l 66 304 z "},",":{"ha":267,"x_min":0,"x_max":0,"o":"m 53 190 l 53 -225 l 216 -88 l 216 190 z "},"-":{"ha":506,"x_min":0,"x_max":0,"o":"m 62 560 l 62 400 l 445 400 l 445 560 z "},".":{"ha":298,"x_min":0,"x_max":0,"o":"m 53 197 l 53 0 l 245 0 l 245 197 z "},"/":{"ha":562,"x_min":0,"x_max":0,"o":"m 355 966 l 62 -14 l 206 -14 l 500 966 z "},":":{"ha":298,"x_min":0,"x_max":0,"o":"m 53 667 l 53 469 l 245 469 l 245 667 z m 53 197 l 53 0 l 245 0 l 245 197 z "},";":{"ha":298,"x_min":0,"x_max":0,"o":"m 80 190 l 80 -225 l 243 -88 l 243 190 z m 53 667 l 53 469 l 245 469 l 245 667 z "},"<":{"ha":734,"x_min":0,"x_max":0,"o":"m 66 309 l 667 73 l 667 235 l 281 381 l 667 528 l 667 688 l 66 453 z "},"=":{"ha":734,"x_min":0,"x_max":0,"o":"m 66 316 l 66 160 l 667 160 l 667 316 z m 66 606 l 66 450 l 667 450 l 667 606 z "},">":{"ha":734,"x_min":0,"x_max":0,"o":"m 66 235 l 66 73 l 667 309 l 667 453 l 66 688 l 66 528 l 453 381 z "},"?":{"ha":625,"x_min":0,"x_max":0,"o":"m 218 339 l 218 269 l 391 269 l 391 327 b 397 382 391 350 392 368 b 427 433 403 397 412 414 l 509 541 b 563 632 533 574 552 604 b 579 726 574 661 579 692 b 545 852 579 773 567 814 b 450 940 524 890 491 918 b 308 972 410 962 362 972 b 110 905 222 972 156 949 b 38 705 64 860 39 792 l 206 705 b 229 788 208 742 214 770 b 302 815 244 806 269 815 b 377 789 336 815 361 807 b 401 719 393 772 401 749 b 391 665 401 700 397 682 b 351 602 384 647 370 627 l 275 505 b 228 425 251 473 235 446 b 218 339 221 403 218 376 z m 213 175 l 213 0 l 395 0 l 395 175 z "},"@":{"ha":1211,"x_min":0,"x_max":0,"o":"m 324 -122 b 606 -189 407 -167 499 -189 b 792 -167 674 -189 736 -182 b 956 -98 848 -152 902 -129 l 894 20 b 757 -33 846 -4 802 -20 b 606 -50 712 -45 662 -50 b 399 -1 526 -50 457 -34 b 264 136 340 31 296 76 b 218 343 233 195 218 264 l 218 442 b 321 727 218 563 252 658 b 606 830 391 796 486 830 b 815 784 686 830 757 815 b 948 650 873 753 917 708 b 994 445 979 591 994 524 l 994 347 b 975 237 994 296 989 260 b 917 203 962 214 943 203 b 867 224 897 203 879 209 b 849 290 854 239 849 260 l 849 686 l 697 686 l 697 631 b 642 682 685 652 667 669 b 553 701 616 696 587 701 b 401 635 486 701 434 680 b 353 449 369 590 353 529 l 353 327 b 563 75 353 159 423 75 b 741 165 652 75 711 106 b 808 99 757 137 779 115 b 916 75 838 83 873 75 b 1084 145 983 75 1039 99 b 1150 349 1128 191 1150 259 l 1150 446 b 1081 718 1150 548 1127 637 b 887 903 1035 798 970 860 b 606 970 804 947 711 970 b 324 903 499 970 407 948 b 132 716 241 859 178 796 b 62 439 85 636 62 544 l 62 342 b 132 65 62 237 85 145 b 324 -122 178 -15 241 -77 z m 694 331 b 602 206 694 248 663 206 b 530 239 568 206 545 217 b 509 335 515 260 509 293 l 509 449 b 532 538 509 487 517 517 b 602 571 547 560 570 571 b 694 448 663 571 694 530 z "},"A":{"ha":841,"x_min":0,"x_max":0,"o":"m 585 186 l 643 0 l 836 0 l 495 959 l 346 959 l 5 0 l 197 0 l 255 186 z m 536 338 l 304 338 l 419 705 z "},"B":{"ha":830,"x_min":0,"x_max":0,"o":"m 727 408 b 628 494 704 445 671 475 b 716 574 666 513 694 538 b 749 692 738 609 749 650 b 670 888 749 777 723 842 b 452 959 617 935 545 959 l 81 959 l 81 0 l 467 0 b 684 72 559 0 632 24 b 761 275 735 119 761 189 b 727 408 761 327 750 372 z m 547 193 b 449 159 525 170 492 159 l 264 159 l 264 408 l 449 408 b 547 377 492 408 525 399 b 579 288 568 355 579 326 b 547 193 579 247 568 216 z m 264 800 l 438 800 b 533 769 480 800 511 789 b 566 681 555 749 566 720 b 533 597 566 644 555 617 b 438 567 511 576 480 567 l 264 567 z "},"C":{"ha":833,"x_min":0,"x_max":0,"o":"m 69 370 b 418 -11 69 115 186 -11 b 670 72 525 -11 609 16 b 761 308 731 127 761 205 l 761 317 l 582 317 l 582 307 b 541 193 582 259 568 220 b 422 152 514 165 473 152 b 294 205 363 152 321 170 b 252 373 267 240 252 296 l 252 581 b 293 758 252 663 267 722 b 419 812 319 795 361 812 b 540 769 471 812 511 798 b 582 652 568 741 582 701 l 582 644 l 764 644 l 764 654 b 671 888 764 754 734 833 b 420 972 609 944 525 972 b 69 590 186 972 69 845 z "},"D":{"ha":833,"x_min":0,"x_max":0,"o":"m 81 959 l 81 0 l 414 0 b 670 90 521 0 608 30 b 764 382 732 149 764 247 l 764 578 b 671 869 764 713 732 810 b 419 959 610 929 526 959 z m 418 159 l 264 159 l 264 800 l 418 800 b 541 745 473 800 514 781 b 582 568 568 708 582 650 l 582 384 b 541 213 582 307 568 250 b 418 159 514 176 472 159 z "},"E":{"ha":738,"x_min":0,"x_max":0,"o":"m 264 800 l 690 800 l 690 959 l 81 959 l 81 0 l 690 0 l 690 159 l 264 159 l 264 404 l 628 404 l 628 563 l 264 563 z "},"F":{"ha":731,"x_min":0,"x_max":0,"o":"m 264 800 l 690 800 l 690 959 l 81 959 l 81 0 l 264 0 l 264 396 l 629 396 l 629 555 l 264 555 z "},"G":{"ha":833,"x_min":0,"x_max":0,"o":"m 69 370 b 418 -11 69 115 186 -11 b 764 357 648 -11 764 111 l 764 521 l 416 521 l 416 370 l 586 370 l 586 326 b 548 194 586 267 574 222 b 426 152 522 165 481 152 b 296 203 366 152 324 168 b 252 373 267 239 252 294 l 252 581 b 293 758 252 663 267 722 b 419 812 319 795 361 812 b 540 769 471 812 511 798 b 582 661 568 741 582 704 l 582 651 l 764 651 l 764 661 b 671 890 764 758 734 834 b 420 972 609 945 525 972 b 69 590 186 972 69 845 z "},"H":{"ha":845,"x_min":0,"x_max":0,"o":"m 764 959 l 582 959 l 582 564 l 264 564 l 264 959 l 81 959 l 81 0 l 264 0 l 264 406 l 582 406 l 582 0 l 764 0 z "},"I":{"ha":362,"x_min":0,"x_max":0,"o":"m 91 959 l 91 0 l 273 0 l 273 959 z "},"J":{"ha":458,"x_min":0,"x_max":0,"o":"m 34 160 l 34 0 l 151 0 b 312 57 220 0 274 19 b 369 220 350 95 369 149 l 369 959 l 186 959 l 186 250 b 168 180 186 216 180 194 b 109 160 156 167 137 160 z "},"K":{"ha":846,"x_min":0,"x_max":0,"o":"m 391 426 l 628 0 l 838 0 l 507 574 l 814 959 l 595 959 l 264 511 l 264 959 l 81 959 l 81 0 l 264 0 l 264 269 z "},"L":{"ha":716,"x_min":0,"x_max":0,"o":"m 81 959 l 81 0 l 684 0 l 684 159 l 264 159 l 264 959 z "},"M":{"ha":1016,"x_min":0,"x_max":0,"o":"m 935 959 l 753 959 l 510 429 l 264 959 l 81 959 l 81 0 l 264 0 l 264 572 l 449 184 l 571 184 l 753 568 l 753 0 l 935 0 z "},"N":{"ha":880,"x_min":0,"x_max":0,"o":"m 799 959 l 617 959 l 617 358 l 264 959 l 81 959 l 81 0 l 264 0 l 264 598 l 617 0 l 799 0 z "},"O":{"ha":833,"x_min":0,"x_max":0,"o":"m 69 370 b 412 -11 69 115 183 -11 b 669 79 519 -11 605 19 b 764 370 732 138 764 235 l 764 590 b 671 883 764 726 734 823 b 418 972 609 943 525 972 b 69 590 186 972 69 845 z m 541 205 b 418 152 514 170 473 152 b 292 203 359 152 317 168 b 252 373 266 239 252 294 l 252 581 b 292 760 252 663 266 724 b 418 812 317 795 359 812 b 541 758 473 812 514 795 b 582 581 568 722 582 662 l 582 373 b 541 205 582 296 568 240 z "},"P":{"ha":787,"x_min":0,"x_max":0,"o":"m 670 878 b 441 959 614 932 538 959 l 81 959 l 81 0 l 264 0 l 264 363 l 441 363 b 670 444 538 363 614 391 b 754 656 726 496 754 567 b 670 878 754 750 726 823 z m 534 559 b 431 524 510 536 475 524 l 264 524 l 264 800 l 431 800 b 536 764 476 800 511 788 b 572 656 560 739 572 703 b 534 559 572 614 559 582 z "},"Q":{"ha":833,"x_min":0,"x_max":0,"o":"m 633 49 b 764 370 720 110 764 217 l 764 590 b 671 883 764 726 734 823 b 418 972 609 943 525 972 b 69 590 186 972 69 845 l 69 370 b 412 -11 69 115 183 -11 b 483 -7 437 -11 461 -9 l 595 -214 l 735 -137 z m 292 203 b 252 373 266 239 252 294 l 252 581 b 292 760 252 663 266 724 b 418 812 317 795 359 812 b 541 758 473 812 514 795 b 582 581 568 722 582 662 l 582 373 b 541 205 582 296 568 240 b 418 152 514 170 473 152 b 292 203 359 152 317 168 z "},"R":{"ha":833,"x_min":0,"x_max":0,"o":"m 400 389 l 582 0 l 792 0 l 583 416 b 709 513 637 437 680 469 b 753 673 739 556 753 610 b 670 882 753 761 726 830 b 446 959 614 933 540 959 l 81 959 l 81 0 l 264 0 l 264 389 z m 264 540 l 264 800 l 437 800 b 534 765 479 800 510 788 b 571 673 559 742 571 712 b 536 574 571 631 559 597 b 437 540 513 551 479 540 z "},"S":{"ha":761,"x_min":0,"x_max":0,"o":"m 130 69 b 370 -8 187 18 267 -8 b 620 68 475 -8 559 16 b 712 289 681 119 712 193 b 465 559 712 439 631 529 l 363 576 b 264 618 319 585 286 600 b 232 697 243 637 232 663 b 269 787 232 735 244 765 b 374 819 293 808 327 819 b 480 788 420 819 456 810 b 521 686 505 766 518 732 l 696 686 b 602 898 689 777 658 848 b 378 972 547 948 473 972 b 144 894 281 972 202 945 b 56 684 85 842 56 773 b 315 416 56 534 141 445 l 406 401 b 503 361 450 395 483 381 b 533 274 524 340 533 312 b 380 148 533 190 483 148 b 258 180 326 148 285 159 b 208 292 231 202 214 239 l 35 292 b 130 69 42 194 73 121 z "},"T":{"ha":688,"x_min":0,"x_max":0,"o":"m 681 800 l 681 959 l 8 959 l 8 800 l 252 800 l 252 0 l 437 0 l 437 800 z "},"U":{"ha":852,"x_min":0,"x_max":0,"o":"m 250 33 b 425 -8 302 5 359 -8 b 602 33 490 -8 549 5 b 726 148 655 60 696 98 b 770 316 755 198 770 254 l 770 959 l 587 959 l 587 323 b 544 195 587 269 574 225 b 425 151 514 165 475 151 b 307 195 374 151 335 165 b 264 323 278 225 264 269 l 264 959 l 81 959 l 81 316 b 126 148 81 254 96 198 b 250 33 156 98 197 60 z "},"V":{"ha":769,"x_min":0,"x_max":0,"o":"m 5 959 l 311 0 l 457 0 l 764 959 l 574 959 l 385 296 l 195 959 z "},"W":{"ha":1156,"x_min":0,"x_max":0,"o":"m 1152 959 l 982 959 l 846 282 l 699 959 l 472 959 l 332 282 l 187 959 l 5 959 l 241 0 l 407 0 l 581 709 l 755 0 l 922 0 z "},"X":{"ha":823,"x_min":0,"x_max":0,"o":"m 304 499 l 5 0 l 213 0 l 408 354 l 601 0 l 818 0 l 515 506 l 787 959 l 579 959 l 412 647 l 243 959 l 27 959 z "},"Y":{"ha":750,"x_min":0,"x_max":0,"o":"m 467 395 l 746 959 l 545 959 l 374 570 l 205 959 l 5 959 l 285 393 l 285 0 l 467 0 z "},"Z":{"ha":701,"x_min":0,"x_max":0,"o":"m 663 160 l 240 160 l 651 800 l 651 959 l 50 959 l 50 800 l 454 800 l 42 160 l 42 0 l 663 0 z "},"[":{"ha":437,"x_min":0,"x_max":0,"o":"m 81 1029 l 81 -117 l 374 -117 l 374 43 l 254 43 l 254 869 l 374 869 l 374 1029 z "},"\\":{"ha":562,"x_min":0,"x_max":0,"o":"m 62 966 l 357 -14 l 500 -14 l 206 966 z "},"]":{"ha":438,"x_min":0,"x_max":0,"o":"m 62 43 l 62 -117 l 357 -117 l 357 1024 l 62 1024 l 62 865 l 184 865 l 184 43 z "},"^":{"ha":734,"x_min":0,"x_max":0,"o":"m 294 966 l 58 377 l 201 377 l 366 799 l 532 377 l 675 377 l 439 966 z "},"_":{"ha":694,"x_min":0,"x_max":0,"o":"m 0 -56 l 0 -168 l 694 -168 l 694 -56 z "},"`":{"ha":694,"x_min":0,"x_max":0,"o":"m 176 1001 l 368 817 l 517 817 l 366 1001 z "},"a":{"ha":696,"x_min":0,"x_max":0,"o":"m 547 666 b 336 731 498 709 429 731 b 141 671 255 731 189 711 b 69 511 94 632 69 579 l 69 506 l 229 506 l 229 510 b 258 574 229 537 239 557 b 335 598 277 590 302 598 b 450 483 412 598 450 560 l 450 426 l 297 426 b 115 370 220 426 159 408 b 50 217 72 332 50 282 b 111 52 50 146 71 91 b 283 -8 152 12 209 -8 b 380 8 323 -8 354 -3 b 454 62 406 19 430 38 l 454 0 l 621 0 l 621 475 b 547 666 621 559 595 623 z m 420 161 b 323 130 400 141 368 130 b 217 221 252 130 217 161 b 326 308 217 279 254 308 l 450 308 l 450 256 b 420 161 450 214 441 182 z "},"b":{"ha":715,"x_min":0,"x_max":0,"o":"m 243 66 b 414 -8 283 16 340 -8 b 585 66 483 -8 540 16 b 652 290 629 117 652 190 l 652 433 b 585 656 652 533 629 608 b 408 731 540 705 480 731 b 247 648 340 731 286 703 l 247 959 l 75 959 l 75 0 l 243 0 z m 480 296 b 369 144 480 195 444 144 b 278 183 330 144 300 157 b 245 296 256 209 245 247 l 245 426 b 278 538 245 475 256 513 b 365 578 300 564 328 578 b 449 543 400 578 429 566 b 480 426 469 519 480 480 z "},"c":{"ha":701,"x_min":0,"x_max":0,"o":"m 141 65 b 355 -8 194 16 264 -8 b 564 61 445 -8 514 15 b 639 248 614 107 639 168 l 639 258 l 475 258 l 475 250 b 444 172 475 216 464 191 b 358 144 423 153 395 144 b 266 179 319 144 288 156 b 233 296 244 202 233 241 l 233 426 b 358 578 233 526 275 578 b 444 548 395 578 423 567 b 475 468 464 529 475 502 l 475 460 l 639 460 l 639 473 b 564 662 639 553 614 617 b 355 731 514 707 445 731 b 141 656 264 731 194 705 b 62 429 88 608 62 532 l 62 294 b 141 65 62 191 88 114 z "},"d":{"ha":713,"x_min":0,"x_max":0,"o":"m 130 66 b 301 -8 175 16 232 -8 b 471 66 374 -8 431 16 l 471 0 l 639 0 l 639 959 l 468 959 l 468 648 b 300 731 429 703 372 731 b 129 656 229 731 172 705 b 62 433 85 608 62 533 l 62 290 b 130 66 62 190 85 117 z m 437 183 b 346 144 415 157 385 144 b 235 296 271 144 235 195 l 235 426 b 350 578 235 526 273 578 b 437 538 387 578 416 564 b 468 426 457 513 468 475 l 468 296 b 437 183 468 247 458 209 z "},"e":{"ha":718,"x_min":0,"x_max":0,"o":"m 233 309 l 655 309 l 655 406 b 575 648 655 513 628 594 b 359 731 522 703 450 731 b 141 650 267 731 194 704 b 62 406 88 595 62 514 l 62 317 b 144 72 62 206 90 125 b 365 -8 198 19 273 -8 b 574 54 453 -8 522 12 b 650 220 625 96 650 151 l 650 227 l 486 227 l 484 222 b 453 161 483 197 472 176 b 372 140 434 146 406 140 b 270 175 327 140 294 152 b 233 290 245 198 233 236 z m 266 548 b 359 583 288 571 319 583 b 483 446 442 583 483 538 l 483 427 l 233 427 l 233 431 b 266 548 233 486 244 525 z "},"f":{"ha":464,"x_min":0,"x_max":0,"o":"m 315 825 b 369 842 327 837 345 842 l 426 842 l 426 959 l 327 959 b 179 907 263 959 214 941 b 126 765 144 873 126 826 l 126 722 l 50 722 l 50 601 l 126 601 l 126 0 l 297 0 l 297 601 l 426 601 l 426 722 l 297 722 l 297 772 b 315 825 297 795 302 812 z "},"g":{"ha":713,"x_min":0,"x_max":0,"o":"m 149 -172 b 346 -228 195 -209 262 -228 b 562 -152 438 -228 510 -202 b 639 53 613 -102 639 -33 l 639 722 l 468 722 l 468 648 b 300 731 429 703 372 731 b 129 656 229 731 172 705 b 62 433 85 608 62 533 l 62 354 b 130 130 62 254 85 180 b 301 56 175 80 232 56 b 471 130 374 56 431 80 l 471 42 b 353 -92 471 -47 431 -92 b 274 -72 320 -92 294 -85 b 237 -18 254 -58 241 -39 l 72 -18 b 149 -172 76 -83 103 -136 z m 437 247 b 346 209 415 221 385 209 b 235 359 271 209 235 259 l 235 426 b 350 578 235 526 273 578 b 437 538 387 578 416 564 b 468 426 457 513 468 475 l 468 359 b 437 247 468 311 458 273 z "},"h":{"ha":722,"x_min":0,"x_max":0,"o":"m 75 959 l 75 0 l 247 0 l 247 450 b 279 544 247 491 258 522 b 362 578 301 566 328 578 b 445 545 396 578 425 567 b 475 450 465 524 475 492 l 475 0 l 647 0 l 647 471 b 586 662 647 552 627 616 b 414 731 545 708 488 731 b 323 712 381 731 351 724 b 247 658 294 700 269 682 l 247 959 z "},"i":{"ha":334,"x_min":0,"x_max":0,"o":"m 81 722 l 81 0 l 252 0 l 252 722 z m 79 959 l 79 821 l 254 821 l 254 959 z "},"j":{"ha":334,"x_min":0,"x_max":0,"o":"m -46 -68 l -46 -217 l 35 -217 b 195 -160 104 -217 157 -198 b 252 3 233 -122 252 -68 l 252 722 l 81 722 l 81 14 b 65 -49 81 -15 76 -35 b 12 -68 54 -62 37 -68 z m 77 959 l 77 821 l 252 821 l 252 959 z "},"k":{"ha":722,"x_min":0,"x_max":0,"o":"m 324 302 l 495 0 l 703 0 l 438 435 l 685 722 l 480 722 l 247 422 l 247 959 l 75 959 l 75 0 l 247 0 l 247 214 z "},"l":{"ha":397,"x_min":0,"x_max":0,"o":"m 133 57 b 294 0 171 19 225 0 l 373 0 l 373 149 l 315 149 b 263 167 290 149 274 155 b 247 231 252 179 247 201 l 247 959 l 75 959 l 75 220 b 133 57 75 149 95 95 z "},"m":{"ha":1122,"x_min":0,"x_max":0,"o":"m 75 722 l 75 0 l 247 0 l 247 450 b 279 544 247 491 258 522 b 362 578 301 566 328 578 b 444 545 396 578 423 567 b 475 450 464 524 475 492 l 475 0 l 647 0 l 647 454 b 678 544 647 491 658 521 b 762 578 699 567 727 578 b 844 545 796 578 823 567 b 875 450 864 524 875 492 l 875 0 l 1047 0 l 1047 471 b 982 661 1047 551 1025 614 b 803 731 939 707 880 731 b 598 640 723 731 654 700 b 414 731 556 700 494 731 b 320 711 381 731 350 724 b 243 656 290 697 264 680 l 243 722 z "},"n":{"ha":722,"x_min":0,"x_max":0,"o":"m 75 722 l 75 0 l 247 0 l 247 450 b 279 544 247 491 258 522 b 362 578 301 566 328 578 b 445 544 396 578 425 566 b 475 450 465 522 475 491 l 475 0 l 647 0 l 647 471 b 586 661 647 551 627 614 b 414 731 545 707 488 731 b 320 712 381 731 350 724 b 243 656 290 700 264 681 l 243 722 z "},"o":{"ha":708,"x_min":0,"x_max":0,"o":"m 141 65 b 355 -8 194 16 264 -8 b 568 65 445 -8 517 16 b 646 294 620 114 646 191 l 646 429 b 568 656 646 532 620 608 b 355 731 517 705 445 731 b 141 656 264 731 194 705 b 62 429 88 608 62 532 l 62 294 b 141 65 62 191 88 114 z m 475 296 b 355 144 475 195 435 144 b 233 296 274 144 233 195 l 233 426 b 355 578 233 526 274 578 b 475 426 435 578 475 526 z "},"p":{"ha":715,"x_min":0,"x_max":0,"o":"m 75 722 l 75 -217 l 247 -217 l 247 65 b 414 -8 286 16 342 -8 b 585 66 483 -8 540 16 b 652 290 629 117 652 190 l 652 433 b 585 656 652 533 629 608 b 408 731 540 705 480 731 b 243 648 340 731 285 703 l 243 722 z m 480 296 b 369 144 480 195 444 144 b 278 183 330 144 300 157 b 245 296 256 209 245 247 l 245 426 b 278 538 245 475 256 513 b 365 578 300 564 328 578 b 449 543 400 578 429 566 b 480 426 469 519 480 480 z "},"q":{"ha":713,"x_min":0,"x_max":0,"o":"m 468 65 l 468 -217 l 639 -217 l 639 722 l 471 722 l 471 648 b 305 731 430 703 374 731 b 130 656 233 731 175 705 b 62 433 85 608 62 533 l 62 290 b 130 66 62 190 85 117 b 301 -8 175 16 232 -8 b 468 65 373 -8 429 16 z m 437 183 b 346 144 415 157 385 144 b 235 296 271 144 235 195 l 235 426 b 350 578 235 526 273 578 b 437 538 387 578 416 564 b 468 426 457 513 468 475 l 468 296 b 437 183 468 247 458 209 z "},"r":{"ha":496,"x_min":0,"x_max":0,"o":"m 75 722 l 75 0 l 247 0 l 247 433 b 285 547 247 481 259 521 b 387 586 311 572 345 586 b 472 571 411 586 439 582 l 472 732 b 414 738 454 736 435 738 b 313 715 377 738 343 730 b 243 647 283 700 260 678 l 243 722 z "},"s":{"ha":658,"x_min":0,"x_max":0,"o":"m 125 52 b 324 -8 175 11 241 -8 b 533 52 410 -8 479 11 b 614 224 587 92 614 149 b 560 365 614 283 597 331 b 397 431 524 399 469 420 l 312 445 b 243 469 279 449 258 457 b 221 519 228 481 221 498 b 248 575 221 543 229 562 b 330 595 267 589 294 595 b 412 575 365 595 392 589 b 442 517 433 562 442 541 l 442 513 l 601 513 l 601 521 b 567 628 601 560 590 595 b 472 704 544 661 513 686 b 330 731 431 722 384 731 b 136 670 251 731 186 711 b 60 507 85 629 60 576 b 111 368 60 448 77 400 b 271 301 145 335 199 313 l 347 289 b 426 263 384 283 410 275 b 450 212 442 251 450 233 b 418 151 450 184 439 164 b 330 130 396 137 368 130 b 244 153 294 130 266 138 b 212 217 222 168 212 190 l 212 220 l 50 220 l 50 214 b 125 52 50 146 75 92 z "},"t":{"ha":488,"x_min":0,"x_max":0,"o":"m 305 601 l 445 601 l 445 722 l 305 722 l 305 924 l 134 864 l 134 722 l 35 722 l 35 601 l 134 601 l 134 209 b 193 56 134 145 155 94 b 349 0 231 18 283 0 l 430 0 l 430 146 l 377 146 b 305 220 330 146 305 171 z "},"u":{"ha":722,"x_min":0,"x_max":0,"o":"m 75 292 b 361 -8 75 92 170 -8 b 576 66 457 -8 529 16 b 647 292 624 117 647 191 l 647 722 l 475 722 l 475 300 b 452 182 475 245 467 206 b 361 144 437 157 406 144 b 270 184 316 144 285 159 b 247 300 255 210 247 248 l 247 722 l 75 722 z "},"v":{"ha":667,"x_min":0,"x_max":0,"o":"m 12 722 l 263 0 l 404 0 l 655 722 l 473 722 l 335 264 l 194 722 z "},"w":{"ha":1021,"x_min":0,"x_max":0,"o":"m 12 722 l 224 0 l 369 0 l 510 468 l 651 0 l 798 0 l 1009 722 l 826 722 l 713 264 l 575 722 l 446 722 l 307 264 l 194 722 z "},"x":{"ha":637,"x_min":0,"x_max":0,"o":"m 446 0 l 625 0 l 406 378 l 613 722 l 431 722 l 326 517 l 206 722 l 24 722 l 229 372 l 12 0 l 193 0 l 312 228 z "},"y":{"ha":669,"x_min":0,"x_max":0,"o":"m 656 722 l 480 722 l 336 269 l 194 722 l 12 722 l 256 19 l 254 9 b 221 -45 245 -18 235 -35 b 160 -60 208 -54 187 -60 l 106 -60 l 106 -214 l 165 -214 b 304 -178 222 -214 269 -202 b 384 -62 339 -153 365 -115 z "},"z":{"ha":631,"x_min":0,"x_max":0,"o":"m 570 578 l 570 722 l 62 722 l 62 578 l 382 578 l 62 144 l 62 0 l 570 0 l 570 144 l 250 144 z "},"{":{"ha":499,"x_min":0,"x_max":0,"o":"m 213 -73 b 340 -117 243 -103 285 -117 l 438 -117 l 438 22 l 389 22 b 331 83 350 22 331 42 l 331 282 b 309 400 331 335 324 374 b 232 458 294 426 269 445 b 309 515 269 471 294 490 b 331 635 324 541 331 582 l 331 827 b 389 888 331 868 350 888 l 438 888 l 438 1028 l 340 1028 b 213 985 285 1028 243 1015 b 168 859 183 955 168 913 l 168 643 b 144 559 168 604 160 576 b 62 532 127 541 102 532 l 62 385 b 144 358 102 385 127 376 b 168 274 160 340 168 313 l 168 54 b 213 -73 168 -1 183 -43 z "},"|":{"ha":410,"x_min":0,"x_max":0,"o":"m 125 1028 l 125 -117 l 285 -117 l 285 1028 z "},"}":{"ha":499,"x_min":0,"x_max":0,"o":"m 62 22 l 62 -117 l 161 -117 b 288 -73 217 -117 258 -103 b 332 54 317 -43 332 -1 l 332 274 b 357 358 332 313 340 340 b 438 385 373 376 400 385 l 438 532 b 357 559 400 532 373 541 b 332 643 340 576 332 604 l 332 859 b 288 985 332 913 317 955 b 161 1028 258 1015 217 1028 l 62 1028 l 62 888 l 111 888 b 171 827 151 888 171 868 l 171 635 b 193 515 171 582 178 541 b 270 458 208 490 233 471 b 193 400 233 445 208 426 b 171 282 178 374 171 335 l 171 83 b 111 22 171 42 151 22 z "},"~":{"ha":734,"x_min":0,"x_max":0,"o":"m 416 282 b 481 271 437 274 457 271 b 598 311 524 271 563 285 b 682 423 633 336 661 374 l 571 491 b 529 431 557 464 544 444 b 476 414 514 419 496 414 b 437 422 463 414 450 416 b 387 448 423 427 407 437 b 317 480 361 463 336 473 b 252 491 298 487 277 491 b 138 453 210 491 172 479 b 54 340 104 427 76 389 l 165 273 b 209 332 180 300 194 320 b 259 350 224 345 240 350 b 297 342 273 350 285 347 b 349 316 309 336 327 328 b 416 282 373 301 396 290 z "},"¡":{"ha":345,"x_min":0,"x_max":0,"o":"m 109 403 l 75 -217 l 271 -217 l 237 403 z m 80 722 l 80 540 l 266 540 l 266 722 z "},"¢":{"ha":760,"x_min":0,"x_max":0,"o":"m 475 460 l 639 460 l 639 473 b 585 642 639 543 621 598 b 427 726 548 685 495 713 l 427 882 l 346 882 l 346 731 b 138 654 258 730 189 703 b 62 429 88 605 62 529 l 62 294 b 138 68 62 193 88 117 b 346 -8 189 19 258 -7 l 346 -138 l 427 -138 l 427 -3 b 583 81 494 9 547 38 b 639 248 620 125 639 180 l 639 258 l 475 258 l 475 250 b 444 172 475 216 464 191 b 358 144 423 153 395 144 b 266 179 319 144 288 156 b 233 296 244 202 233 241 l 233 426 b 358 578 233 526 275 578 b 444 548 395 578 423 567 b 475 468 464 529 475 502 z "},"£":{"ha":647,"x_min":0,"x_max":0,"o":"m 259 157 b 302 297 288 189 302 235 l 302 384 l 483 384 l 483 541 l 302 541 l 302 732 b 321 795 302 760 309 780 b 374 818 334 810 351 818 b 425 798 396 818 412 811 b 444 742 437 784 444 766 l 613 742 b 548 913 613 817 591 873 b 372 972 505 952 446 972 b 186 905 292 972 229 949 b 121 711 142 860 121 793 l 121 541 l 35 541 l 35 384 l 121 384 l 121 279 b 107 194 121 243 117 213 b 60 151 98 175 81 161 l 60 0 l 613 0 l 613 157 z "},"¤":{"ha":826,"x_min":0,"x_max":0,"o":"m 559 194 l 650 103 l 751 205 l 659 296 b 696 439 684 338 696 387 b 658 581 696 490 682 536 l 750 674 l 650 774 l 557 684 b 412 720 513 708 464 720 b 269 684 361 720 313 708 l 176 774 l 75 674 l 168 581 b 130 439 144 536 130 490 b 167 297 130 385 142 338 l 75 206 l 176 104 l 267 194 b 412 156 311 168 358 156 b 559 194 467 156 515 168 z m 515 334 b 412 292 488 305 454 292 b 311 334 372 292 338 305 b 271 439 283 362 271 397 b 311 543 271 481 283 515 b 412 585 338 570 372 585 b 515 543 454 585 488 570 b 556 439 543 515 556 481 b 515 334 556 397 543 362 z "},"¥":{"ha":689,"x_min":0,"x_max":0,"o":"m 254 163 l 254 0 l 437 0 l 437 163 l 616 163 l 616 285 l 437 285 l 437 361 l 616 361 l 616 483 l 465 483 l 681 959 l 495 959 l 349 574 l 197 959 l 9 959 l 225 483 l 75 483 l 75 361 l 254 361 l 254 285 l 75 285 l 75 163 z "},"¦":{"ha":410,"x_min":0,"x_max":0,"o":"m 125 374 l 125 -117 l 285 -117 l 285 374 z m 125 1028 l 125 538 l 285 538 l 285 1028 z "},"§":{"ha":709,"x_min":0,"x_max":0,"o":"m 165 -171 b 350 -233 208 -213 270 -233 b 532 -171 426 -233 487 -212 b 600 -14 576 -130 600 -77 b 579 98 600 31 593 68 b 506 172 566 127 541 152 b 594 255 543 190 572 217 b 628 385 616 293 628 338 b 578 553 628 454 612 510 b 423 647 544 597 492 628 b 309 697 368 663 330 680 b 278 770 289 715 278 738 b 300 830 278 795 285 815 b 361 853 315 845 335 853 b 448 757 418 853 448 821 l 602 757 b 541 930 602 830 582 888 b 358 994 500 972 438 994 b 229 966 309 994 266 985 b 142 886 193 947 163 920 b 113 772 122 852 113 814 b 133 669 113 732 119 699 b 203 595 146 639 171 614 b 114 510 165 575 136 547 b 81 382 92 473 81 430 b 132 213 81 313 98 256 b 286 119 165 170 217 138 b 403 68 343 103 382 87 b 435 -9 423 49 435 24 b 412 -69 435 -34 427 -54 b 347 -92 397 -84 376 -92 b 258 5 288 -92 258 -60 l 102 5 b 165 -171 102 -71 123 -129 z m 433 294 b 355 262 414 273 389 262 b 275 293 321 262 294 271 b 247 384 256 315 247 345 b 275 473 247 423 256 452 b 355 506 294 495 321 506 b 433 473 389 506 414 495 b 461 384 452 452 461 422 b 433 294 461 346 452 316 z "},"©":{"ha":1088,"x_min":0,"x_max":0,"o":"m 294 49 b 544 -12 366 8 449 -12 b 795 49 639 -12 723 8 b 962 220 867 90 922 146 b 1020 475 1001 293 1020 378 b 962 730 1020 571 1001 656 b 795 902 922 803 867 861 b 544 963 723 943 639 963 b 294 902 449 963 366 943 b 127 731 222 861 167 804 b 69 475 88 658 69 572 b 127 220 69 378 88 293 b 294 49 167 146 222 90 z m 811 197 b 544 95 747 129 656 95 b 278 197 431 95 342 129 b 182 475 214 264 182 357 b 278 754 182 593 214 685 b 544 857 342 823 431 857 b 811 754 656 857 747 823 b 907 475 875 685 907 593 b 811 197 907 357 875 264 z m 392 259 b 547 206 430 224 481 206 b 699 256 610 206 662 222 b 754 393 735 290 754 336 l 754 400 l 635 400 l 635 395 b 613 336 635 370 628 350 b 551 316 598 323 578 316 b 481 342 521 316 498 326 b 458 427 465 358 458 387 l 458 522 b 551 633 458 597 490 633 b 612 612 576 633 597 627 b 635 553 627 597 635 578 l 635 547 l 754 547 l 754 557 b 700 694 754 616 736 661 b 547 745 663 728 612 745 b 392 690 481 745 430 727 b 335 524 354 654 335 598 l 335 426 b 392 259 335 350 354 294 z "},"ª":{"ha":490,"x_min":0,"x_max":0,"o":"m 369 1000 b 233 1039 338 1025 293 1039 b 109 1002 180 1039 140 1027 b 62 902 77 978 62 945 l 62 899 l 178 899 l 178 902 b 193 933 178 916 183 925 b 232 944 202 941 216 944 b 293 887 273 944 293 925 l 293 860 l 208 860 b 92 825 159 860 119 848 b 50 732 65 802 50 772 b 90 629 50 690 64 655 b 195 591 115 604 151 591 b 251 601 217 591 236 595 b 297 632 266 606 281 617 l 297 597 l 416 597 l 416 880 b 369 1000 416 933 400 974 z m 277 708 b 225 693 266 697 250 693 b 183 705 206 693 193 697 b 170 736 174 713 170 723 b 227 776 170 764 189 776 l 293 776 l 293 755 b 277 708 293 734 288 719 z "},"«":{"ha":728,"x_min":0,"x_max":0,"o":"m 24 366 l 339 52 l 339 233 l 208 366 l 339 500 l 339 682 z m 339 366 l 654 52 l 654 233 l 521 366 l 654 500 l 654 682 z "},"¬":{"ha":734,"x_min":0,"x_max":0,"o":"m 494 353 l 494 167 l 663 167 l 663 507 l 69 507 l 69 353 z "},"®":{"ha":686,"x_min":0,"x_max":0,"o":"m 209 463 b 343 427 248 439 293 427 b 477 463 393 427 438 439 b 571 559 517 486 548 518 b 605 694 594 600 605 644 b 571 829 605 743 594 788 b 477 925 548 869 517 902 b 343 960 438 948 393 960 b 210 925 294 960 250 948 b 117 830 171 902 140 871 b 81 694 94 789 81 745 b 117 559 81 644 94 600 b 209 463 140 518 170 486 z m 490 543 b 343 483 452 503 403 483 b 197 543 283 483 235 503 b 140 694 159 582 140 632 b 197 846 140 757 159 807 b 343 905 235 886 283 905 b 488 846 403 905 450 886 b 545 694 526 807 545 757 b 490 543 545 632 528 582 z m 236 844 l 236 548 l 308 548 l 308 656 l 343 656 l 395 548 l 472 548 l 414 669 b 465 751 448 685 465 712 b 438 819 465 781 457 803 b 358 844 419 836 392 844 z m 354 718 l 308 718 l 308 783 l 354 783 b 393 750 380 783 393 772 b 354 718 393 728 380 718 z "},"¯":{"ha":694,"x_min":0,"x_max":0,"o":"m 152 972 l 152 819 l 543 819 l 543 972 z "},"°":{"ha":547,"x_min":0,"x_max":0,"o":"m 127 624 b 274 566 167 585 216 566 b 377 591 312 566 346 574 b 450 665 408 609 433 633 b 477 769 468 696 477 731 b 450 873 477 807 468 842 b 377 947 433 905 408 929 b 274 974 346 964 312 974 b 170 947 236 974 201 964 b 96 873 138 929 114 905 b 69 769 79 842 69 807 b 127 624 69 711 88 663 z m 342 699 b 274 670 324 680 301 670 b 205 697 245 670 222 678 b 178 769 187 716 178 739 b 205 842 178 799 187 823 b 274 869 222 861 245 869 b 342 841 301 869 324 860 b 369 769 359 822 369 798 b 342 699 369 741 359 718 z "},"±":{"ha":734,"x_min":0,"x_max":0,"o":"m 289 391 l 289 168 l 448 168 l 448 391 l 669 391 l 669 548 l 448 548 l 448 770 l 289 770 l 289 548 l 66 548 l 66 391 z m 66 109 l 66 -50 l 669 -50 l 669 109 z "},"²":{"ha":480,"x_min":0,"x_max":0,"o":"m 61 708 l 61 597 l 425 597 l 425 720 l 241 720 l 369 878 b 411 943 388 899 401 922 b 425 1012 420 963 425 986 l 425 1028 b 374 1142 425 1073 408 1111 b 243 1190 340 1173 297 1190 b 107 1143 186 1190 141 1173 b 57 1027 73 1114 57 1076 l 57 1005 l 194 1005 l 194 1019 b 206 1055 194 1035 199 1046 b 236 1069 213 1065 222 1069 b 269 1057 250 1069 262 1065 b 279 1021 275 1048 279 1036 l 279 1010 b 251 945 279 990 270 968 z "},"³":{"ha":473,"x_min":0,"x_max":0,"o":"m 99 628 b 236 587 132 601 176 587 b 366 635 289 587 332 604 b 418 761 400 666 418 708 l 418 776 b 399 859 418 807 411 836 b 345 907 387 882 369 898 b 408 1019 387 932 408 968 l 408 1031 b 362 1146 408 1078 393 1118 b 233 1190 331 1175 288 1190 b 102 1146 176 1190 133 1175 b 54 1025 71 1118 54 1077 l 54 1010 l 182 1010 l 182 1027 b 228 1069 182 1055 197 1069 b 271 1019 256 1069 271 1053 l 271 1006 b 258 968 271 990 266 978 b 220 954 250 959 236 954 l 191 954 l 191 836 l 221 836 b 281 773 260 836 281 815 l 281 761 b 267 720 281 743 275 730 b 232 705 259 711 247 705 b 180 751 198 705 180 720 l 180 765 l 52 765 l 52 745 b 99 628 52 693 66 655 z "},"µ":{"ha":722,"x_min":0,"x_max":0,"o":"m 75 722 l 75 -217 l 245 -217 l 245 14 b 335 -8 273 -1 302 -8 b 479 65 395 -8 442 16 l 479 0 l 647 0 l 647 722 l 475 722 l 475 273 b 442 178 475 232 464 199 b 359 144 420 156 393 144 b 278 178 326 144 298 156 b 247 273 258 199 247 232 l 247 722 z "},"¶":{"ha":894,"x_min":0,"x_max":0,"o":"m 355 351 l 355 -217 l 509 -217 l 509 819 l 623 819 l 623 -217 l 770 -217 l 770 959 l 397 959 b 229 918 332 959 277 944 b 121 810 182 892 146 856 b 81 655 95 764 81 712 b 117 505 81 600 94 549 b 213 397 140 460 172 425 b 355 351 254 370 301 355 z "},"·":{"ha":298,"x_min":0,"x_max":0,"o":"m 53 486 l 53 289 l 245 289 l 245 486 z "},"¹":{"ha":351,"x_min":0,"x_max":0,"o":"m 134 1024 l 134 597 l 278 597 l 278 1179 l 136 1179 l 41 1109 l 41 958 z "},"º":{"ha":492,"x_min":0,"x_max":0,"o":"m 110 637 b 247 591 144 606 189 591 b 384 637 305 591 351 606 b 433 776 416 669 433 713 l 433 856 b 384 994 433 918 416 964 b 247 1039 351 1024 305 1039 b 110 994 189 1039 144 1024 b 60 856 76 964 60 918 l 60 776 b 110 637 60 713 76 669 z m 308 776 b 245 703 308 727 288 703 b 183 776 203 703 183 727 l 183 854 b 245 928 183 903 203 928 b 308 854 288 928 308 903 z "},"»":{"ha":728,"x_min":0,"x_max":0,"o":"m 75 233 l 75 52 l 391 366 l 75 682 l 75 500 l 209 366 z m 391 233 l 391 52 l 704 366 l 391 682 l 391 500 l 522 366 z "},"¼":{"ha":1116,"x_min":0,"x_max":0,"o":"m 1082 79 l 1082 203 l 1044 203 l 1044 326 l 902 326 l 902 203 l 819 203 l 979 582 l 836 582 l 677 203 l 677 79 l 902 79 l 902 0 l 1044 0 l 1044 79 z m 692 966 l 157 0 l 293 0 l 829 966 z m 134 803 l 134 377 l 278 377 l 278 959 l 136 959 l 41 888 l 41 736 z "},"½":{"ha":1115,"x_min":0,"x_max":0,"o":"m 696 111 l 696 0 l 1059 0 l 1059 123 l 876 123 l 1004 281 b 1046 345 1023 302 1036 324 b 1059 415 1055 365 1059 389 l 1059 430 b 1009 544 1059 475 1043 513 b 878 591 975 575 932 591 b 742 547 821 591 776 576 b 692 429 708 517 692 476 l 692 408 l 829 408 l 829 420 b 841 458 829 437 834 449 b 871 472 848 468 857 472 b 903 458 884 472 897 467 b 914 423 910 450 914 438 l 914 414 b 886 349 914 393 905 372 z m 692 966 l 157 0 l 293 0 l 829 966 z m 134 803 l 134 377 l 278 377 l 278 959 l 136 959 l 41 888 l 41 736 z "},"¾":{"ha":1238,"x_min":0,"x_max":0,"o":"m 99 407 b 236 366 132 380 176 366 b 366 414 289 366 332 382 b 418 540 400 445 418 487 l 418 556 b 399 637 418 587 411 614 b 345 686 387 661 369 677 b 408 798 387 711 408 747 l 408 810 b 362 925 408 857 393 897 b 233 968 331 954 288 968 b 102 925 176 968 133 954 b 54 804 71 897 54 856 l 54 791 l 182 791 l 182 806 b 228 849 182 834 197 849 b 271 798 256 849 271 831 l 271 787 b 258 747 271 770 266 757 b 220 734 250 738 236 734 l 191 734 l 191 616 l 221 616 b 281 553 260 616 281 595 l 281 540 b 267 499 281 522 275 509 b 232 484 259 490 247 484 b 180 530 198 484 180 499 l 180 544 l 52 544 l 52 524 b 99 407 52 472 66 434 z m 1204 79 l 1204 203 l 1166 203 l 1166 326 l 1024 326 l 1024 203 l 941 203 l 1101 582 l 959 582 l 799 203 l 799 79 l 1024 79 l 1024 0 l 1166 0 l 1166 79 z m 814 966 l 279 0 l 415 0 l 951 966 z "},"¿":{"ha":625,"x_min":0,"x_max":0,"o":"m 176 -199 b 317 -231 217 -220 263 -231 b 517 -163 403 -231 471 -208 b 589 37 563 -118 587 -50 l 420 37 b 396 -47 419 0 411 -28 b 324 -75 381 -66 358 -75 b 250 -49 292 -75 266 -66 b 225 22 233 -31 225 -8 b 236 79 225 42 229 61 b 275 138 243 96 256 117 l 340 216 b 396 301 370 250 388 278 b 408 396 404 324 408 357 l 408 449 l 236 449 l 236 408 b 227 342 236 381 232 358 b 186 279 221 326 208 304 l 125 209 b 65 114 96 175 77 144 b 47 12 53 84 47 50 b 80 -113 47 -34 58 -76 b 176 -199 102 -149 136 -179 z m 232 722 l 232 541 l 412 541 l 412 722 z "},"À":{"ha":841,"x_min":0,"x_max":0,"o":"m 585 186 l 643 0 l 836 0 l 495 959 l 346 959 l 5 0 l 197 0 l 255 186 z m 536 338 l 304 338 l 419 705 z m 199 1237 l 392 1053 l 540 1053 l 391 1237 z "},"Á":{"ha":841,"x_min":0,"x_max":0,"o":"m 585 186 l 643 0 l 836 0 l 495 959 l 346 959 l 5 0 l 197 0 l 255 186 z m 536 338 l 304 338 l 419 705 z m 442 1237 l 292 1053 l 441 1053 l 632 1237 z "},"Â":{"ha":841,"x_min":0,"x_max":0,"o":"m 585 186 l 643 0 l 836 0 l 495 959 l 346 959 l 5 0 l 197 0 l 255 186 z m 357 1248 l 197 1038 l 334 1038 l 420 1146 l 509 1038 l 643 1038 l 483 1248 z m 536 338 l 304 338 l 419 705 z "},"Ã":{"ha":841,"x_min":0,"x_max":0,"o":"m 585 186 l 643 0 l 836 0 l 495 959 l 346 959 l 5 0 l 197 0 l 255 186 z m 224 1169 l 224 1044 b 282 1088 248 1066 269 1081 b 331 1099 296 1095 312 1099 b 407 1076 353 1099 377 1092 b 457 1053 426 1065 444 1057 b 505 1046 471 1048 487 1046 b 560 1059 526 1046 544 1050 b 617 1105 576 1069 595 1084 l 617 1232 b 560 1188 593 1210 574 1195 b 511 1176 547 1181 530 1176 b 435 1200 490 1176 465 1184 b 385 1222 416 1210 399 1218 b 336 1229 372 1226 355 1229 b 279 1215 315 1229 296 1225 b 224 1169 263 1206 245 1191 z m 536 338 l 304 338 l 419 705 z "},"Ä":{"ha":841,"x_min":0,"x_max":0,"o":"m 585 186 l 643 0 l 836 0 l 495 959 l 346 959 l 5 0 l 197 0 l 255 186 z m 536 338 l 304 338 l 419 705 z m 479 1213 l 479 1051 l 628 1051 l 628 1213 z m 213 1213 l 213 1051 l 361 1051 l 361 1213 z "},"Å":{"ha":841,"x_min":0,"x_max":0,"o":"m 585 186 l 643 0 l 836 0 l 496 956 b 547 1008 518 970 534 986 b 566 1081 559 1029 566 1054 b 525 1184 566 1123 552 1157 b 422 1225 498 1211 463 1225 b 320 1184 381 1225 347 1211 b 279 1081 293 1157 279 1123 b 297 1009 279 1055 285 1031 b 346 959 309 987 326 972 l 5 0 l 197 0 l 255 186 z m 536 338 l 304 338 l 419 705 z m 377 1130 b 422 1149 389 1143 403 1149 b 469 1130 441 1149 457 1143 b 487 1081 481 1116 487 1100 b 469 1034 487 1062 481 1047 b 422 1015 457 1020 441 1015 b 377 1034 404 1015 389 1020 b 358 1081 365 1047 358 1062 b 377 1130 358 1100 365 1116 z "},"Æ":{"ha":1226,"x_min":0,"x_max":0,"o":"m 765 800 l 1177 800 l 1177 959 l 477 959 l 5 0 l 197 0 l 290 195 l 582 195 l 582 0 l 1177 0 l 1177 159 l 765 159 l 765 404 l 1115 404 l 1115 563 l 765 563 z m 582 347 l 363 347 l 582 804 z "},"Ç":{"ha":833,"x_min":0,"x_max":0,"o":"m 582 644 l 764 644 l 764 654 b 671 888 764 754 734 833 b 420 972 609 944 525 972 b 69 590 186 972 69 845 l 69 370 b 372 -9 69 134 170 8 l 288 -217 l 446 -217 l 513 -3 b 696 99 591 12 652 46 b 761 308 739 152 761 221 l 761 317 l 582 317 l 582 307 b 541 193 582 259 568 220 b 422 152 514 165 473 152 b 294 205 363 152 321 170 b 252 373 267 240 252 296 l 252 581 b 293 758 252 663 267 722 b 419 812 319 795 361 812 b 540 769 471 812 511 798 b 582 652 568 741 582 701 z "},"È":{"ha":738,"x_min":0,"x_max":0,"o":"m 264 800 l 690 800 l 690 959 l 81 959 l 81 0 l 690 0 l 690 159 l 264 159 l 264 404 l 628 404 l 628 563 l 264 563 z m 152 1237 l 343 1053 l 491 1053 l 342 1237 z "},"É":{"ha":738,"x_min":0,"x_max":0,"o":"m 264 800 l 690 800 l 690 959 l 81 959 l 81 0 l 690 0 l 690 159 l 264 159 l 264 404 l 628 404 l 628 563 l 264 563 z m 393 1237 l 243 1053 l 392 1053 l 583 1237 z "},"Ê":{"ha":738,"x_min":0,"x_max":0,"o":"m 264 800 l 690 800 l 690 959 l 81 959 l 81 0 l 690 0 l 690 159 l 264 159 l 264 404 l 628 404 l 628 563 l 264 563 z m 308 1248 l 149 1038 l 285 1038 l 372 1146 l 460 1038 l 594 1038 l 435 1248 z "},"Ë":{"ha":738,"x_min":0,"x_max":0,"o":"m 264 800 l 690 800 l 690 959 l 81 959 l 81 0 l 690 0 l 690 159 l 264 159 l 264 404 l 628 404 l 628 563 l 264 563 z m 430 1213 l 430 1051 l 579 1051 l 579 1213 z m 164 1213 l 164 1051 l 312 1051 l 312 1213 z "},"Ì":{"ha":362,"x_min":0,"x_max":0,"o":"m 91 959 l 91 0 l 273 0 l 273 959 z m -41 1237 l 152 1053 l 300 1053 l 151 1237 z "},"Í":{"ha":362,"x_min":0,"x_max":0,"o":"m 91 959 l 91 0 l 273 0 l 273 959 z m 201 1237 l 52 1053 l 199 1053 l 392 1237 z "},"Î":{"ha":362,"x_min":0,"x_max":0,"o":"m 91 959 l 91 0 l 273 0 l 273 959 z m 117 1248 l -43 1038 l 94 1038 l 180 1146 l 269 1038 l 403 1038 l 243 1248 z "},"Ï":{"ha":362,"x_min":0,"x_max":0,"o":"m 91 959 l 91 0 l 273 0 l 273 959 z m 239 1213 l 239 1051 l 388 1051 l 388 1213 z m -27 1213 l -27 1051 l 121 1051 l 121 1213 z "},"Ð":{"ha":878,"x_min":0,"x_max":0,"o":"m 716 869 b 464 959 655 929 571 959 l 126 959 l 126 568 l 38 568 l 38 408 l 126 408 l 126 0 l 458 0 b 713 90 566 0 651 30 b 808 382 776 149 808 247 l 808 578 b 716 869 808 713 777 810 z m 627 568 l 627 384 b 586 213 627 307 613 250 b 463 159 559 176 517 159 l 308 159 l 308 408 l 472 408 l 472 568 l 308 568 l 308 800 l 463 800 b 586 745 518 800 559 781 b 627 568 613 708 627 650 z "},"Ñ":{"ha":880,"x_min":0,"x_max":0,"o":"m 799 959 l 617 959 l 617 358 l 264 959 l 81 959 l 81 0 l 264 0 l 264 598 l 617 0 l 799 0 z m 243 1169 l 243 1044 b 301 1088 267 1066 288 1081 b 350 1099 315 1095 331 1099 b 426 1076 372 1099 396 1092 b 476 1053 445 1065 463 1057 b 524 1046 490 1048 506 1046 b 581 1059 545 1046 564 1050 b 636 1105 597 1069 614 1084 l 636 1232 b 579 1188 612 1210 593 1195 b 530 1176 566 1181 549 1176 b 454 1200 509 1176 484 1184 b 404 1222 435 1210 418 1218 b 355 1229 391 1226 374 1229 b 300 1215 334 1229 316 1225 b 243 1169 283 1206 264 1191 z "},"Ò":{"ha":833,"x_min":0,"x_max":0,"o":"m 69 370 b 412 -11 69 115 183 -11 b 669 79 519 -11 605 19 b 764 370 732 138 764 235 l 764 590 b 671 883 764 726 734 823 b 418 972 609 943 525 972 b 69 590 186 972 69 845 z m 541 205 b 418 152 514 170 473 152 b 292 203 359 152 317 168 b 252 373 266 239 252 294 l 252 581 b 292 760 252 663 266 724 b 418 812 317 795 359 812 b 541 758 473 812 514 795 b 582 581 568 722 582 662 l 582 373 b 541 205 582 296 568 240 z m 195 1237 l 388 1053 l 536 1053 l 387 1237 z "},"Ó":{"ha":833,"x_min":0,"x_max":0,"o":"m 69 370 b 412 -11 69 115 183 -11 b 669 79 519 -11 605 19 b 764 370 732 138 764 235 l 764 590 b 671 883 764 726 734 823 b 418 972 609 943 525 972 b 69 590 186 972 69 845 z m 541 205 b 418 152 514 170 473 152 b 292 203 359 152 317 168 b 252 373 266 239 252 294 l 252 581 b 292 760 252 663 266 724 b 418 812 317 795 359 812 b 541 758 473 812 514 795 b 582 581 568 722 582 662 l 582 373 b 541 205 582 296 568 240 z m 438 1237 l 288 1053 l 437 1053 l 628 1237 z "},"Ô":{"ha":833,"x_min":0,"x_max":0,"o":"m 69 370 b 412 -11 69 115 183 -11 b 669 79 519 -11 605 19 b 764 370 732 138 764 235 l 764 590 b 671 883 764 726 734 823 b 418 972 609 943 525 972 b 69 590 186 972 69 845 z m 541 205 b 418 152 514 170 473 152 b 292 203 359 152 317 168 b 252 373 266 239 252 294 l 252 581 b 292 760 252 663 266 724 b 418 812 317 795 359 812 b 541 758 473 812 514 795 b 582 581 568 722 582 662 l 582 373 b 541 205 582 296 568 240 z m 353 1248 l 193 1038 l 330 1038 l 416 1146 l 505 1038 l 639 1038 l 479 1248 z "},"Õ":{"ha":833,"x_min":0,"x_max":0,"o":"m 69 370 b 412 -11 69 115 183 -11 b 669 79 519 -11 605 19 b 764 370 732 138 764 235 l 764 590 b 671 883 764 726 734 823 b 418 972 609 943 525 972 b 69 590 186 972 69 845 z m 541 205 b 418 152 514 170 473 152 b 292 203 359 152 317 168 b 252 373 266 239 252 294 l 252 581 b 292 760 252 663 266 724 b 418 812 317 795 359 812 b 541 758 473 812 514 795 b 582 581 568 722 582 662 l 582 373 b 541 205 582 296 568 240 z m 220 1169 l 220 1044 b 278 1088 244 1066 264 1081 b 327 1099 292 1095 308 1099 b 403 1076 349 1099 373 1092 b 453 1053 422 1065 439 1057 b 500 1046 467 1048 483 1046 b 556 1059 522 1046 540 1050 b 613 1105 572 1069 591 1084 l 613 1232 b 556 1188 589 1210 570 1195 b 507 1176 543 1181 526 1176 b 430 1200 486 1176 460 1184 b 381 1222 411 1210 395 1218 b 332 1229 368 1226 351 1229 b 275 1215 311 1229 292 1225 b 220 1169 259 1206 241 1191 z "},"Ö":{"ha":833,"x_min":0,"x_max":0,"o":"m 69 370 b 412 -11 69 115 183 -11 b 669 79 519 -11 605 19 b 764 370 732 138 764 235 l 764 590 b 671 883 764 726 734 823 b 418 972 609 943 525 972 b 69 590 186 972 69 845 z m 541 205 b 418 152 514 170 473 152 b 292 203 359 152 317 168 b 252 373 266 239 252 294 l 252 581 b 292 760 252 663 266 724 b 418 812 317 795 359 812 b 541 758 473 812 514 795 b 582 581 568 722 582 662 l 582 373 b 541 205 582 296 568 240 z m 475 1213 l 475 1051 l 624 1051 l 624 1213 z m 209 1213 l 209 1051 l 357 1051 l 357 1213 z "},"×":{"ha":734,"x_min":0,"x_max":0,"o":"m 96 218 l 201 111 l 368 278 l 533 111 l 639 218 l 473 384 l 639 548 l 533 655 l 368 490 l 201 655 l 96 551 l 262 384 z "},"Ø":{"ha":833,"x_min":0,"x_max":0,"o":"m 688 863 l 764 993 l 665 993 l 624 921 b 418 972 570 955 500 972 b 69 590 186 972 69 845 l 69 370 b 142 99 69 251 94 161 l 69 -27 l 170 -27 l 209 39 b 412 -11 263 5 330 -11 b 669 79 519 -11 605 19 b 764 370 732 138 764 235 l 764 590 b 688 863 764 708 739 800 z m 575 670 b 582 581 579 640 582 610 l 582 373 b 541 205 582 296 568 240 b 418 152 514 170 473 152 b 298 194 366 152 326 165 z m 258 296 b 252 373 254 315 252 340 l 252 581 b 292 760 252 663 266 724 b 418 812 317 795 359 812 b 533 768 469 812 507 798 z "},"Ù":{"ha":852,"x_min":0,"x_max":0,"o":"m 250 33 b 425 -8 302 5 359 -8 b 602 33 490 -8 549 5 b 726 148 655 60 696 98 b 770 316 755 198 770 254 l 770 959 l 587 959 l 587 323 b 544 195 587 269 574 225 b 425 151 514 165 475 151 b 307 195 374 151 335 165 b 264 323 278 225 264 269 l 264 959 l 81 959 l 81 316 b 126 148 81 254 96 198 b 250 33 156 98 197 60 z m 206 1237 l 397 1053 l 545 1053 l 396 1237 z "},"Ú":{"ha":852,"x_min":0,"x_max":0,"o":"m 250 33 b 425 -8 302 5 359 -8 b 602 33 490 -8 549 5 b 726 148 655 60 696 98 b 770 316 755 198 770 254 l 770 959 l 587 959 l 587 323 b 544 195 587 269 574 225 b 425 151 514 165 475 151 b 307 195 374 151 335 165 b 264 323 278 225 264 269 l 264 959 l 81 959 l 81 316 b 126 148 81 254 96 198 b 250 33 156 98 197 60 z m 448 1237 l 297 1053 l 446 1053 l 637 1237 z "},"Û":{"ha":852,"x_min":0,"x_max":0,"o":"m 250 33 b 425 -8 302 5 359 -8 b 602 33 490 -8 549 5 b 726 148 655 60 696 98 b 770 316 755 198 770 254 l 770 959 l 587 959 l 587 323 b 544 195 587 269 574 225 b 425 151 514 165 475 151 b 307 195 374 151 335 165 b 264 323 278 225 264 269 l 264 959 l 81 959 l 81 316 b 126 148 81 254 96 198 b 250 33 156 98 197 60 z m 362 1248 l 203 1038 l 339 1038 l 426 1146 l 514 1038 l 648 1038 l 488 1248 z "},"Ü":{"ha":852,"x_min":0,"x_max":0,"o":"m 250 33 b 425 -8 302 5 359 -8 b 602 33 490 -8 549 5 b 726 148 655 60 696 98 b 770 316 755 198 770 254 l 770 959 l 587 959 l 587 323 b 544 195 587 269 574 225 b 425 151 514 165 475 151 b 307 195 374 151 335 165 b 264 323 278 225 264 269 l 264 959 l 81 959 l 81 316 b 126 148 81 254 96 198 b 250 33 156 98 197 60 z m 484 1213 l 484 1051 l 633 1051 l 633 1213 z m 218 1213 l 218 1051 l 366 1051 l 366 1213 z "},"Ý":{"ha":750,"x_min":0,"x_max":0,"o":"m 467 395 l 746 959 l 545 959 l 374 570 l 205 959 l 5 959 l 285 393 l 285 0 l 467 0 z m 396 1237 l 245 1053 l 395 1053 l 586 1237 z "},"Þ":{"ha":787,"x_min":0,"x_max":0,"o":"m 670 719 b 441 800 614 773 538 800 l 264 800 l 264 959 l 81 959 l 81 0 l 264 0 l 264 208 l 441 208 b 670 286 538 208 614 233 b 754 499 726 339 754 410 b 670 719 754 593 726 665 z m 534 400 b 431 365 510 377 475 365 l 264 365 l 264 642 l 431 642 b 536 605 476 642 511 629 b 572 499 560 581 572 545 b 534 400 572 457 559 423 z "},"ß":{"ha":727,"x_min":0,"x_max":0,"o":"m 353 138 l 353 -5 l 410 -5 b 571 26 481 -5 534 5 b 646 125 608 46 632 80 b 665 316 659 170 665 233 b 659 448 665 372 663 415 b 633 528 655 480 647 507 b 574 581 620 548 601 566 b 633 648 601 600 621 623 b 652 743 646 674 652 707 b 578 913 652 817 628 873 b 366 972 528 952 457 972 b 144 901 264 972 190 948 b 75 692 98 853 75 784 l 75 0 l 247 0 l 247 707 b 277 796 247 747 258 777 b 368 825 296 815 326 825 b 454 803 407 825 435 818 b 481 735 473 788 481 766 b 461 669 481 705 475 684 b 396 646 448 654 427 646 l 353 646 l 353 503 l 385 503 b 458 484 419 503 442 496 b 488 429 475 472 484 453 b 495 320 492 404 495 369 b 490 209 495 270 492 232 b 464 156 487 186 477 168 b 397 138 450 144 429 138 z "},"à":{"ha":696,"x_min":0,"x_max":0,"o":"m 547 666 b 336 731 498 709 429 731 b 141 671 255 731 189 711 b 69 511 94 632 69 579 l 69 506 l 229 506 l 229 510 b 258 574 229 537 239 557 b 335 598 277 590 302 598 b 450 483 412 598 450 560 l 450 426 l 297 426 b 115 370 220 426 159 408 b 50 217 72 332 50 282 b 111 52 50 146 71 91 b 283 -8 152 12 209 -8 b 380 8 323 -8 354 -3 b 454 62 406 19 430 38 l 454 0 l 621 0 l 621 475 b 547 666 621 559 595 623 z m 420 161 b 323 130 400 141 368 130 b 217 221 252 130 217 161 b 326 308 217 279 254 308 l 450 308 l 450 256 b 420 161 450 214 441 182 z m 115 1001 l 307 817 l 456 817 l 305 1001 z "},"á":{"ha":696,"x_min":0,"x_max":0,"o":"m 547 666 b 336 731 498 709 429 731 b 141 671 255 731 189 711 b 69 511 94 632 69 579 l 69 506 l 229 506 l 229 510 b 258 574 229 537 239 557 b 335 598 277 590 302 598 b 450 483 412 598 450 560 l 450 426 l 297 426 b 115 370 220 426 159 408 b 50 217 72 332 50 282 b 111 52 50 146 71 91 b 283 -8 152 12 209 -8 b 380 8 323 -8 354 -3 b 454 62 406 19 430 38 l 454 0 l 621 0 l 621 475 b 547 666 621 559 595 623 z m 420 161 b 323 130 400 141 368 130 b 217 221 252 130 217 161 b 326 308 217 279 254 308 l 450 308 l 450 256 b 420 161 450 214 441 182 z m 357 1001 l 208 817 l 355 817 l 547 1001 z "},"â":{"ha":696,"x_min":0,"x_max":0,"o":"m 547 666 b 336 731 498 709 429 731 b 141 671 255 731 189 711 b 69 511 94 632 69 579 l 69 506 l 229 506 l 229 510 b 258 574 229 537 239 557 b 335 598 277 590 302 598 b 450 483 412 598 450 560 l 450 426 l 297 426 b 115 370 220 426 159 408 b 50 217 72 332 50 282 b 111 52 50 146 71 91 b 283 -8 152 12 209 -8 b 380 8 323 -8 354 -3 b 454 62 406 19 430 38 l 454 0 l 621 0 l 621 475 b 547 666 621 559 595 623 z m 273 1010 l 113 802 l 248 802 l 336 910 l 423 802 l 559 802 l 399 1010 z m 420 161 b 323 130 400 141 368 130 b 217 221 252 130 217 161 b 326 308 217 279 254 308 l 450 308 l 450 256 b 420 161 450 214 441 182 z "},"ã":{"ha":696,"x_min":0,"x_max":0,"o":"m 547 666 b 336 731 498 709 429 731 b 141 671 255 731 189 711 b 69 511 94 632 69 579 l 69 506 l 229 506 l 229 510 b 258 574 229 537 239 557 b 335 598 277 590 302 598 b 450 483 412 598 450 560 l 450 426 l 297 426 b 115 370 220 426 159 408 b 50 217 72 332 50 282 b 111 52 50 146 71 91 b 283 -8 152 12 209 -8 b 380 8 323 -8 354 -3 b 454 62 406 19 430 38 l 454 0 l 621 0 l 621 475 b 547 666 621 559 595 623 z m 138 933 l 138 808 b 197 852 163 830 183 845 b 245 863 210 859 227 863 b 323 838 267 863 293 854 b 372 817 342 827 358 821 b 419 810 385 812 401 810 b 476 823 441 810 460 814 b 532 869 492 833 510 848 l 532 996 b 475 951 507 974 488 958 b 426 940 461 944 445 940 b 350 964 404 940 380 948 b 300 986 331 975 313 982 b 251 993 286 990 270 993 b 195 979 229 993 212 989 b 138 933 179 970 160 955 z m 420 161 b 323 130 400 141 368 130 b 217 221 252 130 217 161 b 326 308 217 279 254 308 l 450 308 l 450 256 b 420 161 450 214 441 182 z "},"ä":{"ha":696,"x_min":0,"x_max":0,"o":"m 547 666 b 336 731 498 709 429 731 b 141 671 255 731 189 711 b 69 511 94 632 69 579 l 69 506 l 229 506 l 229 510 b 258 574 229 537 239 557 b 335 598 277 590 302 598 b 450 483 412 598 450 560 l 450 426 l 297 426 b 115 370 220 426 159 408 b 50 217 72 332 50 282 b 111 52 50 146 71 91 b 283 -8 152 12 209 -8 b 380 8 323 -8 354 -3 b 454 62 406 19 430 38 l 454 0 l 621 0 l 621 475 b 547 666 621 559 595 623 z m 420 161 b 323 130 400 141 368 130 b 217 221 252 130 217 161 b 326 308 217 279 254 308 l 450 308 l 450 256 b 420 161 450 214 441 182 z m 127 977 l 127 815 l 277 815 l 277 977 z m 395 977 l 395 815 l 543 815 l 543 977 z "},"å":{"ha":696,"x_min":0,"x_max":0,"o":"m 547 666 b 336 731 498 709 429 731 b 141 671 255 731 189 711 b 69 511 94 632 69 579 l 69 506 l 229 506 l 229 510 b 258 574 229 537 239 557 b 335 598 277 590 302 598 b 450 483 412 598 450 560 l 450 426 l 297 426 b 115 370 220 426 159 408 b 50 217 72 332 50 282 b 111 52 50 146 71 91 b 283 -8 152 12 209 -8 b 380 8 323 -8 354 -3 b 454 62 406 19 430 38 l 454 0 l 621 0 l 621 475 b 547 666 621 559 595 623 z m 235 800 b 336 760 262 773 296 760 b 438 800 377 760 411 773 b 479 903 465 827 479 863 b 438 1006 479 945 465 979 b 336 1047 411 1034 377 1047 b 235 1006 296 1047 262 1034 b 193 903 208 979 193 945 b 235 800 193 863 208 827 z m 420 161 b 323 130 400 141 368 130 b 217 221 252 130 217 161 b 326 308 217 279 254 308 l 450 308 l 450 256 b 420 161 450 214 441 182 z m 382 856 b 336 836 370 842 355 836 b 292 856 319 836 304 842 b 273 903 279 869 273 884 b 290 951 273 922 278 937 b 336 971 302 964 317 971 b 382 951 355 971 370 964 b 401 903 395 937 401 922 b 382 856 401 884 395 869 z "},"æ":{"ha":1104,"x_min":0,"x_max":0,"o":"m 621 290 l 621 309 l 1042 309 l 1042 406 b 962 648 1042 513 1015 594 b 747 731 909 703 837 731 b 547 661 666 731 598 707 b 336 731 495 707 426 731 b 141 671 255 731 189 711 b 69 511 94 632 69 579 l 69 506 l 229 506 l 229 510 b 258 574 229 537 239 557 b 335 598 277 590 302 598 b 450 483 412 598 450 560 l 450 426 l 297 426 b 115 370 220 426 159 408 b 50 217 72 332 50 282 b 121 52 50 148 75 92 b 308 -8 167 11 229 -8 b 438 15 355 -8 400 0 b 536 79 476 30 509 52 b 764 -8 591 20 667 -8 b 913 22 822 -8 872 1 b 1005 104 954 42 985 69 b 1036 220 1025 140 1036 178 l 1036 227 l 872 227 l 872 222 b 838 161 869 197 859 176 b 758 140 818 146 792 140 b 656 175 713 140 680 152 b 621 290 633 198 621 236 z m 450 264 b 323 130 450 175 408 130 b 217 221 252 130 217 161 b 326 308 217 279 254 308 l 450 308 z m 654 548 b 747 583 675 571 707 583 b 871 446 830 583 871 538 l 871 427 l 621 427 l 621 431 b 654 548 621 486 632 525 z "},"ç":{"ha":701,"x_min":0,"x_max":0,"o":"m 475 460 l 639 460 l 639 473 b 564 662 639 553 614 617 b 355 731 514 707 445 731 b 141 656 264 731 194 705 b 62 429 88 608 62 532 l 62 294 b 127 80 62 201 84 129 b 305 -5 171 31 229 3 l 220 -217 l 378 -217 l 446 1 b 589 88 507 16 555 46 b 639 248 623 130 639 183 l 639 258 l 475 258 l 475 250 b 444 172 475 216 464 191 b 358 144 423 153 395 144 b 266 179 319 144 288 156 b 233 296 244 202 233 241 l 233 426 b 358 578 233 526 275 578 b 444 548 395 578 423 567 b 475 468 464 529 475 502 z "},"è":{"ha":718,"x_min":0,"x_max":0,"o":"m 233 309 l 655 309 l 655 406 b 575 648 655 513 628 594 b 359 731 522 703 450 731 b 141 650 267 731 194 704 b 62 406 88 595 62 514 l 62 317 b 144 72 62 206 90 125 b 365 -8 198 19 273 -8 b 574 54 453 -8 522 12 b 650 220 625 96 650 151 l 650 227 l 486 227 l 484 222 b 453 161 483 197 472 176 b 372 140 434 146 406 140 b 270 175 327 140 294 152 b 233 290 245 198 233 236 z m 266 548 b 359 583 288 571 319 583 b 483 446 442 583 483 538 l 483 427 l 233 427 l 233 431 b 266 548 233 486 244 525 z m 137 1001 l 330 817 l 477 817 l 328 1001 z "},"é":{"ha":718,"x_min":0,"x_max":0,"o":"m 233 309 l 655 309 l 655 406 b 575 648 655 513 628 594 b 359 731 522 703 450 731 b 141 650 267 731 194 704 b 62 406 88 595 62 514 l 62 317 b 144 72 62 206 90 125 b 365 -8 198 19 273 -8 b 574 54 453 -8 522 12 b 650 220 625 96 650 151 l 650 227 l 486 227 l 484 222 b 453 161 483 197 472 176 b 372 140 434 146 406 140 b 270 175 327 140 294 152 b 233 290 245 198 233 236 z m 266 548 b 359 583 288 571 319 583 b 483 446 442 583 483 538 l 483 427 l 233 427 l 233 431 b 266 548 233 486 244 525 z m 380 1001 l 229 817 l 378 817 l 570 1001 z "},"ê":{"ha":718,"x_min":0,"x_max":0,"o":"m 233 309 l 655 309 l 655 406 b 575 648 655 513 628 594 b 359 731 522 703 450 731 b 141 650 267 731 194 704 b 62 406 88 595 62 514 l 62 317 b 144 72 62 206 90 125 b 365 -8 198 19 273 -8 b 574 54 453 -8 522 12 b 650 220 625 96 650 151 l 650 227 l 486 227 l 484 222 b 453 161 483 197 472 176 b 372 140 434 146 406 140 b 270 175 327 140 294 152 b 233 290 245 198 233 236 z m 294 1010 l 134 802 l 271 802 l 358 910 l 446 802 l 581 802 l 420 1010 z m 266 548 b 359 583 288 571 319 583 b 483 446 442 583 483 538 l 483 427 l 233 427 l 233 431 b 266 548 233 486 244 525 z "},"ë":{"ha":718,"x_min":0,"x_max":0,"o":"m 233 309 l 655 309 l 655 406 b 575 648 655 513 628 594 b 359 731 522 703 450 731 b 141 650 267 731 194 704 b 62 406 88 595 62 514 l 62 317 b 144 72 62 206 90 125 b 365 -8 198 19 273 -8 b 574 54 453 -8 522 12 b 650 220 625 96 650 151 l 650 227 l 486 227 l 484 222 b 453 161 483 197 472 176 b 372 140 434 146 406 140 b 270 175 327 140 294 152 b 233 290 245 198 233 236 z m 266 548 b 359 583 288 571 319 583 b 483 446 442 583 483 538 l 483 427 l 233 427 l 233 431 b 266 548 233 486 244 525 z m 416 977 l 416 815 l 566 815 l 566 977 z m 151 977 l 151 815 l 298 815 l 298 977 z "},"ì":{"ha":334,"x_min":0,"x_max":0,"o":"m 81 722 l 81 0 l 252 0 l 252 722 z m -54 1001 l 137 817 l 286 817 l 136 1001 z "},"í":{"ha":334,"x_min":0,"x_max":0,"o":"m 81 722 l 81 0 l 252 0 l 252 722 z m 187 1001 l 38 817 l 186 817 l 378 1001 z "},"î":{"ha":334,"x_min":0,"x_max":0,"o":"m 81 722 l 81 0 l 252 0 l 252 722 z m 103 1010 l -57 802 l 79 802 l 167 910 l 254 802 l 389 802 l 229 1010 z "},"ï":{"ha":334,"x_min":0,"x_max":0,"o":"m 81 722 l 81 0 l 252 0 l 252 722 z m -42 977 l -42 815 l 107 815 l 107 977 z m 225 977 l 225 815 l 373 815 l 373 977 z "},"ð":{"ha":707,"x_min":0,"x_max":0,"o":"m 609 547 b 499 743 586 606 549 671 l 465 791 l 564 821 l 529 930 l 396 888 l 342 966 l 164 966 l 248 845 l 138 811 l 174 701 l 316 746 l 400 627 b 304 646 373 640 340 646 b 126 566 228 646 168 618 b 62 351 84 513 62 441 l 62 290 b 137 66 62 195 87 121 b 351 -15 187 12 259 -15 b 568 68 445 -15 517 12 b 644 302 620 123 644 201 l 644 359 b 609 547 644 425 632 487 z m 483 354 l 483 294 b 354 134 483 187 439 134 b 222 293 266 134 222 187 l 222 357 b 354 507 222 457 266 507 b 483 354 439 507 483 456 z "},"ñ":{"ha":722,"x_min":0,"x_max":0,"o":"m 75 722 l 75 0 l 247 0 l 247 450 b 279 544 247 491 258 522 b 362 578 301 566 328 578 b 445 544 396 578 425 566 b 475 450 465 522 475 491 l 475 0 l 647 0 l 647 471 b 586 661 647 551 627 614 b 414 731 545 707 488 731 b 320 712 381 731 350 724 b 243 656 290 700 264 681 l 243 722 z m 164 933 l 164 808 b 222 852 189 830 209 845 b 271 863 236 859 252 863 b 347 838 293 863 317 854 b 397 817 366 827 384 821 b 445 810 411 812 427 810 b 500 823 467 810 484 814 b 557 869 517 833 536 848 l 557 996 b 500 951 533 974 514 958 b 452 940 487 944 471 940 b 374 964 430 940 404 948 b 326 986 355 975 339 982 b 277 993 312 990 296 993 b 220 979 255 993 236 989 b 164 933 203 970 186 955 z "},"ò":{"ha":708,"x_min":0,"x_max":0,"o":"m 141 65 b 355 -8 194 16 264 -8 b 568 65 445 -8 517 16 b 646 294 620 114 646 191 l 646 429 b 568 656 646 532 620 608 b 355 731 517 705 445 731 b 141 656 264 731 194 705 b 62 429 88 608 62 532 l 62 294 b 141 65 62 191 88 114 z m 475 296 b 355 144 475 195 435 144 b 233 296 274 144 233 195 l 233 426 b 355 578 233 526 274 578 b 475 426 435 578 475 526 z m 134 1001 l 327 817 l 475 817 l 326 1001 z "},"ó":{"ha":708,"x_min":0,"x_max":0,"o":"m 141 65 b 355 -8 194 16 264 -8 b 568 65 445 -8 517 16 b 646 294 620 114 646 191 l 646 429 b 568 656 646 532 620 608 b 355 731 517 705 445 731 b 141 656 264 731 194 705 b 62 429 88 608 62 532 l 62 294 b 141 65 62 191 88 114 z m 475 296 b 355 144 475 195 435 144 b 233 296 274 144 233 195 l 233 426 b 355 578 233 526 274 578 b 475 426 435 578 475 526 z m 377 1001 l 227 817 l 374 817 l 567 1001 z "},"ô":{"ha":708,"x_min":0,"x_max":0,"o":"m 141 65 b 355 -8 194 16 264 -8 b 568 65 445 -8 517 16 b 646 294 620 114 646 191 l 646 429 b 568 656 646 532 620 608 b 355 731 517 705 445 731 b 141 656 264 731 194 705 b 62 429 88 608 62 532 l 62 294 b 141 65 62 191 88 114 z m 475 296 b 355 144 475 195 435 144 b 233 296 274 144 233 195 l 233 426 b 355 578 233 526 274 578 b 475 426 435 578 475 526 z m 292 1010 l 132 802 l 269 802 l 355 910 l 444 802 l 578 802 l 418 1010 z "},"õ":{"ha":708,"x_min":0,"x_max":0,"o":"m 141 65 b 355 -8 194 16 264 -8 b 568 65 445 -8 517 16 b 646 294 620 114 646 191 l 646 429 b 568 656 646 532 620 608 b 355 731 517 705 445 731 b 141 656 264 731 194 705 b 62 429 88 608 62 532 l 62 294 b 141 65 62 191 88 114 z m 475 296 b 355 144 475 195 435 144 b 233 296 274 144 233 195 l 233 426 b 355 578 233 526 274 578 b 475 426 435 578 475 526 z m 159 933 l 159 808 b 217 852 183 830 203 845 b 266 863 231 859 247 863 b 342 838 288 863 312 854 b 392 817 361 827 378 821 b 439 810 406 812 422 810 b 495 823 461 810 479 814 b 552 869 511 833 530 848 l 552 996 b 495 951 528 974 509 958 b 446 940 481 944 465 940 b 369 964 425 940 399 948 b 320 986 350 975 334 982 b 271 993 307 990 290 993 b 214 979 250 993 231 989 b 159 933 198 970 180 955 z "},"ö":{"ha":708,"x_min":0,"x_max":0,"o":"m 141 65 b 355 -8 194 16 264 -8 b 568 65 445 -8 517 16 b 646 294 620 114 646 191 l 646 429 b 568 656 646 532 620 608 b 355 731 517 705 445 731 b 141 656 264 731 194 705 b 62 429 88 608 62 532 l 62 294 b 141 65 62 191 88 114 z m 475 296 b 355 144 475 195 435 144 b 233 296 274 144 233 195 l 233 426 b 355 578 233 526 274 578 b 475 426 435 578 475 526 z m 414 977 l 414 815 l 563 815 l 563 977 z m 148 977 l 148 815 l 296 815 l 296 977 z "},"÷":{"ha":734,"x_min":0,"x_max":0,"o":"m 66 463 l 66 304 l 669 304 l 669 463 z m 301 87 b 366 60 319 69 340 60 b 433 87 393 60 415 69 b 460 153 450 104 460 127 b 433 218 460 179 450 201 b 366 245 415 236 392 245 b 301 218 340 245 319 236 b 275 153 283 201 275 179 b 301 87 275 127 283 104 z m 301 549 b 366 522 319 532 340 522 b 433 549 392 522 415 532 b 460 616 450 567 460 590 b 433 681 460 642 450 663 b 366 708 415 699 392 708 b 301 681 340 708 319 699 b 275 616 283 663 275 642 b 301 549 275 590 283 567 z "},"ø":{"ha":708,"x_min":0,"x_max":0,"o":"m 576 647 l 646 758 l 560 758 l 519 693 b 355 731 475 718 419 731 b 141 656 264 731 194 705 b 62 429 88 608 62 532 l 62 294 b 133 73 62 199 85 125 l 62 -41 l 149 -41 l 191 27 b 355 -8 236 3 290 -8 b 568 65 445 -8 517 16 b 646 294 620 114 646 191 l 646 429 b 576 647 646 524 623 595 z m 237 241 b 233 296 235 258 233 275 l 233 426 b 355 578 233 526 274 578 b 431 553 387 578 412 570 z m 471 477 b 475 426 473 463 475 445 l 475 296 b 355 144 475 195 435 144 b 278 168 323 144 297 152 z "},"ù":{"ha":722,"x_min":0,"x_max":0,"o":"m 75 292 b 361 -8 75 92 170 -8 b 576 66 457 -8 529 16 b 647 292 624 117 647 191 l 647 722 l 475 722 l 475 300 b 452 182 475 245 467 206 b 361 144 437 157 406 144 b 270 184 316 144 285 159 b 247 300 255 210 247 248 l 247 722 l 75 722 z m 140 1001 l 332 817 l 480 817 l 331 1001 z "},"ú":{"ha":722,"x_min":0,"x_max":0,"o":"m 75 292 b 361 -8 75 92 170 -8 b 576 66 457 -8 529 16 b 647 292 624 117 647 191 l 647 722 l 475 722 l 475 300 b 452 182 475 245 467 206 b 361 144 437 157 406 144 b 270 184 316 144 285 159 b 247 300 255 210 247 248 l 247 722 l 75 722 z m 382 1001 l 232 817 l 381 817 l 572 1001 z "},"û":{"ha":722,"x_min":0,"x_max":0,"o":"m 75 292 b 361 -8 75 92 170 -8 b 576 66 457 -8 529 16 b 647 292 624 117 647 191 l 647 722 l 475 722 l 475 300 b 452 182 475 245 467 206 b 361 144 437 157 406 144 b 270 184 316 144 285 159 b 247 300 255 210 247 248 l 247 722 l 75 722 z m 297 1010 l 137 802 l 274 802 l 361 910 l 449 802 l 583 802 l 423 1010 z "},"ü":{"ha":722,"x_min":0,"x_max":0,"o":"m 75 292 b 361 -8 75 92 170 -8 b 576 66 457 -8 529 16 b 647 292 624 117 647 191 l 647 722 l 475 722 l 475 300 b 452 182 475 245 467 206 b 361 144 437 157 406 144 b 270 184 316 144 285 159 b 247 300 255 210 247 248 l 247 722 l 75 722 z m 419 977 l 419 815 l 568 815 l 568 977 z m 153 977 l 153 815 l 301 815 l 301 977 z "},"ý":{"ha":669,"x_min":0,"x_max":0,"o":"m 656 722 l 480 722 l 336 269 l 194 722 l 12 722 l 256 19 l 254 9 b 221 -45 245 -18 235 -35 b 160 -60 208 -54 187 -60 l 106 -60 l 106 -214 l 165 -214 b 304 -178 222 -214 269 -202 b 384 -62 339 -153 365 -115 z m 355 1001 l 206 817 l 354 817 l 545 1001 z "},"þ":{"ha":715,"x_min":0,"x_max":0,"o":"m 75 959 l 75 -217 l 243 -217 l 243 66 b 414 -8 283 16 340 -8 b 585 66 483 -8 540 16 b 652 290 629 117 652 190 l 652 433 b 585 656 652 533 629 608 b 408 731 540 705 480 731 b 247 648 340 731 286 703 l 247 959 z m 480 296 b 369 144 480 195 444 144 b 278 183 330 144 300 157 b 245 296 256 209 245 247 l 245 426 b 278 538 245 475 256 513 b 365 578 300 564 328 578 b 449 543 400 578 429 566 b 480 426 469 519 480 480 z "},"ÿ":{"ha":669,"x_min":0,"x_max":0,"o":"m 656 722 l 480 722 l 336 269 l 194 722 l 12 722 l 256 19 l 254 9 b 221 -45 245 -18 235 -35 b 160 -60 208 -54 187 -60 l 106 -60 l 106 -214 l 165 -214 b 304 -178 222 -214 269 -202 b 384 -62 339 -153 365 -115 z m 126 977 l 126 815 l 275 815 l 275 977 z m 393 977 l 393 815 l 541 815 l 541 977 z "},"ı":{"ha":334,"x_min":0,"x_max":0,"o":"m 81 722 l 81 0 l 252 0 l 252 722 z "},"̀":{"ha":0,"x_min":0,"x_max":0,"o":"m -221 1001 l -30 817 l 119 817 l -31 1001 z "},"́":{"ha":0,"x_min":0,"x_max":0,"o":"m 20 1001 l -129 817 l 19 817 l 212 1001 z "},"̂":{"ha":0,"x_min":0,"x_max":0,"o":"m -64 1010 l -224 802 l -88 802 l 0 910 l 88 802 l 222 802 l 62 1010 z "},"̈":{"ha":0,"x_min":0,"x_max":0,"o":"m -209 977 l -209 815 l -60 815 l -60 977 z m 58 977 l 58 815 l 208 815 l 208 977 z "},"̊":{"ha":0,"x_min":0,"x_max":0,"o":"m -102 842 b 0 802 -75 815 -41 802 b 102 842 41 802 75 815 b 142 944 129 869 142 903 b 102 1048 142 986 129 1021 b 0 1089 75 1076 41 1089 b -102 1048 -41 1089 -75 1076 b -142 944 -129 1021 -142 986 b -102 842 -142 903 -129 869 z m 46 898 b 0 878 34 884 19 878 b -45 898 -18 878 -33 884 b -64 944 -57 911 -64 925 b -46 993 -64 963 -58 979 b 0 1012 -34 1006 -19 1012 b 46 993 19 1012 34 1006 b 65 944 58 979 65 963 b 46 898 65 925 58 911 z "},"̃":{"ha":0,"x_min":0,"x_max":0,"o":"m -197 933 l -197 808 b -138 852 -172 830 -152 845 b -91 863 -125 859 -110 863 b -14 838 -69 863 -43 854 b 37 817 5 827 23 821 b 83 810 50 812 65 810 b 140 823 104 810 123 814 b 195 869 156 833 174 848 l 195 996 b 138 951 171 974 152 958 b 91 940 125 944 110 940 b 14 964 69 940 43 948 b -37 986 -5 975 -23 982 b -84 993 -50 990 -65 993 b -141 979 -106 993 -125 989 b -197 933 -157 970 -175 955 z "},"‘":{"ha":267,"x_min":0,"x_max":0,"o":"m 216 601 l 216 1017 l 53 879 l 53 601 z "},"’":{"ha":267,"x_min":0,"x_max":0,"o":"m 53 959 l 53 543 l 216 681 l 216 959 z "},"−":{"ha":545,"x_min":0,"x_max":0,"o":"m 62 560 l 62 400 l 445 400 l 445 560 z "},"¨":{"ha":694,"x_min":0,"x_max":0,"o":"m 138 977 l 138 815 l 288 815 l 288 977 z m 406 977 l 406 815 l 555 815 l 555 977 z "},"Ÿ":{"ha":750,"x_min":0,"x_max":0,"o":"m 467 395 l 746 959 l 545 959 l 374 570 l 205 959 l 5 959 l 285 393 l 285 0 l 467 0 z m 433 1213 l 433 1051 l 582 1051 l 582 1213 z m 167 1213 l 167 1051 l 315 1051 l 315 1213 z "},"‹":{"ha":414,"x_min":0,"x_max":0,"o":"m 24 366 l 339 52 l 339 233 l 208 366 l 339 500 l 339 682 z "},"­":{"ha":506,"x_min":0,"x_max":0,"o":"m 62 560 l 62 400 l 445 400 l 445 560 z "},"”":{"ha":532,"x_min":0,"x_max":0,"o":"m 53 959 l 53 543 l 216 681 l 216 959 z m 316 959 l 316 543 l 479 681 l 479 959 z "},"´":{"ha":694,"x_min":0,"x_max":0,"o":"m 327 1001 l 176 817 l 326 817 l 517 1001 z "},"Œ":{"ha":1208,"x_min":0,"x_max":0,"o":"m 764 800 l 1161 800 l 1161 959 l 595 959 l 595 917 b 401 972 540 954 476 972 b 161 882 304 972 222 943 b 69 590 100 821 69 723 l 69 370 b 160 79 69 236 100 138 b 400 -11 220 19 300 -11 b 595 43 475 -11 540 7 l 595 0 l 1161 0 l 1161 159 l 764 159 l 764 404 l 1099 404 l 1099 563 l 764 563 z m 582 581 l 582 373 b 541 205 582 296 568 240 b 418 152 514 170 473 152 b 292 203 359 152 317 168 b 252 373 266 239 252 294 l 252 581 b 292 760 252 663 266 724 b 418 812 317 795 359 812 b 541 758 473 812 514 795 b 582 581 568 722 582 662 z "},"⁄":{"ha":282,"x_min":0,"x_max":0,"o":"m 347 966 l -187 0 l -52 0 l 484 966 z "},"∕":{"ha":244,"x_min":0,"x_max":0,"o":"m 347 966 l -187 0 l -52 0 l 484 966 z "},"‚":{"ha":267,"x_min":0,"x_max":0,"o":"m 53 190 l 53 -225 l 216 -88 l 216 190 z "},"“":{"ha":532,"x_min":0,"x_max":0,"o":"m 216 601 l 216 1017 l 53 879 l 53 601 z m 479 601 l 479 1017 l 316 879 l 316 601 z "},"€":{"ha":762,"x_min":0,"x_max":0,"o":"m 189 71 b 408 -15 240 14 313 -15 b 605 47 488 -15 553 5 b 693 235 656 90 686 152 l 541 235 b 499 157 534 201 519 175 b 414 132 479 140 450 132 b 313 178 369 132 335 148 b 282 302 292 208 282 248 l 282 335 l 502 335 l 521 448 l 282 448 l 282 517 l 530 517 l 551 629 l 282 629 l 282 661 b 412 825 282 770 326 825 b 536 724 481 825 522 792 l 692 724 b 609 906 686 802 659 863 b 410 972 559 949 492 972 b 190 888 315 972 241 944 b 113 662 138 833 113 757 l 113 629 l 38 629 l 38 517 l 113 517 l 113 448 l 38 448 l 38 335 l 113 335 l 113 304 b 189 71 113 205 137 127 z "},"…":{"ha":1073,"x_min":0,"x_max":0,"o":"m 827 197 l 827 0 l 1021 0 l 1021 197 z m 53 197 l 53 0 l 245 0 l 245 197 z m 441 197 l 441 0 l 633 0 l 633 197 z "},"\r":{"ha":317,"x_min":0,"x_max":0,"o":""},"„":{"ha":530,"x_min":0,"x_max":0,"o":"m 53 190 l 53 -225 l 216 -88 l 216 190 z m 315 190 l 315 -225 l 477 -88 l 477 190 z "},"›":{"ha":427,"x_min":0,"x_max":0,"o":"m 75 233 l 75 52 l 391 366 l 75 682 l 75 500 l 209 366 z "},"ﬁ":{"ha":798,"x_min":0,"x_max":0,"o":"m 315 825 b 369 842 327 837 345 842 l 426 842 l 426 959 l 327 959 b 179 907 263 959 214 941 b 126 765 144 873 126 826 l 126 722 l 50 722 l 50 601 l 126 601 l 126 0 l 297 0 l 297 601 l 426 601 l 426 722 l 297 722 l 297 772 b 315 825 297 795 302 812 z m 545 722 l 545 0 l 716 0 l 716 722 z m 543 959 l 543 821 l 718 821 l 718 959 z "},"™":{"ha":1124,"x_min":0,"x_max":0,"o":"m 540 959 l 540 411 l 658 411 l 658 697 l 661 697 l 750 490 l 834 490 l 922 697 l 926 697 l 926 411 l 1043 411 l 1043 959 l 928 959 l 796 643 l 792 643 l 656 959 z m 189 846 l 189 411 l 315 411 l 315 846 l 463 846 l 463 959 l 42 959 l 42 846 z "},"ﬂ":{"ha":861,"x_min":0,"x_max":0,"o":"m 315 825 b 369 842 327 837 345 842 l 426 842 l 426 959 l 327 959 b 179 907 263 959 214 941 b 126 765 144 873 126 826 l 126 722 l 50 722 l 50 601 l 126 601 l 126 0 l 297 0 l 297 601 l 426 601 l 426 722 l 297 722 l 297 772 b 315 825 297 795 302 812 z m 597 57 b 758 0 635 19 689 0 l 837 0 l 837 149 l 779 149 b 727 167 754 149 738 155 b 711 231 716 179 711 201 l 711 959 l 538 959 l 538 220 b 597 57 538 149 559 95 z "},"˙":{"ha":694,"x_min":0,"x_max":0,"o":"m 259 966 l 259 827 l 435 827 l 435 966 z "},"⁴":{"ha":460,"x_min":0,"x_max":0,"o":"m 448 677 l 448 800 l 410 800 l 410 922 l 267 922 l 267 800 l 184 800 l 345 1179 l 201 1179 l 42 800 l 42 677 l 267 677 l 267 597 l 410 597 l 410 677 z "},"˚":{"ha":694,"x_min":0,"x_max":0,"o":"m 243 842 b 345 802 270 815 304 802 b 446 842 385 802 419 815 b 487 944 473 869 487 903 b 446 1048 487 986 473 1021 b 345 1089 419 1076 385 1089 b 243 1048 304 1089 270 1076 b 201 944 216 1021 201 986 b 243 842 201 903 216 869 z m 391 898 b 345 878 378 884 363 878 b 300 898 327 878 312 884 b 281 944 288 911 281 925 b 298 993 281 963 286 979 b 345 1012 311 1006 326 1012 b 391 993 363 1012 378 1006 b 410 944 403 979 410 963 b 391 898 410 925 403 911 z "},"ˆ":{"ha":694,"x_min":0,"x_max":0,"o":"m 283 1010 l 123 802 l 259 802 l 347 910 l 435 802 l 570 802 l 410 1010 z "},"ˇ":{"ha":694,"x_min":0,"x_max":0,"o":"m 123 1001 l 283 792 l 410 792 l 570 1001 l 435 1001 l 347 892 l 259 1001 z "},"•":{"ha":628,"x_min":0,"x_max":0,"o":"m 170 282 b 315 225 208 244 255 225 b 460 282 373 225 422 244 b 517 427 498 320 517 368 b 460 574 517 487 498 536 b 315 631 422 612 373 631 b 170 574 255 631 208 612 b 113 427 132 536 113 487 b 170 282 113 368 132 320 z "},"‡":{"ha":757,"x_min":0,"x_max":0,"o":"m 471 510 l 682 510 l 682 670 l 471 670 l 471 959 l 289 959 l 289 670 l 75 670 l 75 510 l 289 510 l 289 239 l 75 239 l 75 79 l 289 79 l 289 -217 l 471 -217 l 471 79 l 682 79 l 682 239 l 471 239 z "},"ƒ":{"ha":582,"x_min":0,"x_max":0,"o":"m 12 -54 l 12 -217 l 75 -217 b 245 -164 151 -217 208 -199 b 321 12 283 -129 308 -71 l 385 435 l 545 435 l 545 587 l 407 587 l 426 715 b 456 780 430 746 441 766 b 522 800 471 793 494 800 l 570 800 l 570 959 l 499 959 b 331 905 425 959 369 940 b 255 734 293 869 267 812 l 233 587 l 103 587 l 103 435 l 212 435 l 152 34 b 122 -37 146 0 137 -24 b 53 -54 107 -49 84 -54 z "},"œ":{"ha":1128,"x_min":0,"x_max":0,"o":"m 646 290 l 646 309 l 1066 309 l 1066 406 b 987 648 1066 513 1040 594 b 772 731 935 703 861 731 b 566 659 686 731 617 707 b 355 731 515 707 445 731 b 141 656 264 731 194 705 b 62 429 88 608 62 532 l 62 294 b 141 65 62 191 88 114 b 355 -8 194 16 264 -8 b 566 62 445 -8 515 15 b 776 -8 617 15 686 -8 b 986 54 865 -8 936 12 b 1061 220 1036 96 1061 151 l 1061 227 l 898 227 l 898 222 b 863 161 895 197 883 176 b 784 140 842 146 818 140 b 681 175 739 140 704 152 b 646 290 658 198 646 236 z m 475 426 l 475 296 b 355 144 475 195 435 144 b 233 296 274 144 233 195 l 233 426 b 355 578 233 526 274 578 b 475 426 435 578 475 526 z m 646 427 l 646 431 b 678 548 646 486 656 525 b 772 583 700 571 731 583 b 895 446 854 583 895 538 l 895 427 z "},"š":{"ha":658,"x_min":0,"x_max":0,"o":"m 125 52 b 324 -8 175 11 241 -8 b 533 52 410 -8 479 11 b 614 224 587 92 614 149 b 560 365 614 283 597 331 b 397 431 524 399 469 420 l 312 445 b 243 469 279 449 258 457 b 221 519 228 481 221 498 b 248 575 221 543 229 562 b 330 595 267 589 294 595 b 412 575 365 595 392 589 b 442 517 433 562 442 541 l 442 513 l 601 513 l 601 521 b 567 628 601 560 590 595 b 472 704 544 661 513 686 b 330 731 431 722 384 731 b 136 670 251 731 186 711 b 60 507 85 629 60 576 b 111 368 60 448 77 400 b 271 301 145 335 199 313 l 347 289 b 426 263 384 283 410 275 b 450 212 442 251 450 233 b 418 151 450 184 439 164 b 330 130 396 137 368 130 b 244 153 294 130 266 138 b 212 217 222 168 212 190 l 212 220 l 50 220 l 50 214 b 125 52 50 146 75 92 z m 106 1001 l 266 792 l 392 792 l 552 1001 l 416 1001 l 330 892 l 241 1001 z "},"‰":{"ha":1742,"x_min":0,"x_max":0,"o":"m 871 43 b 1012 -8 901 8 947 -8 b 1153 43 1076 -8 1123 8 b 1199 198 1183 79 1199 129 l 1199 396 b 1153 543 1199 461 1183 510 b 1012 591 1123 575 1076 591 b 873 543 951 591 906 575 b 825 396 841 510 825 461 l 825 198 b 871 43 825 129 841 79 z m 100 419 b 243 366 130 384 178 366 b 384 419 307 366 354 384 b 429 574 414 454 429 505 l 429 770 b 384 918 429 836 414 886 b 243 967 354 951 307 967 b 103 917 182 967 136 949 b 56 770 71 884 56 836 l 56 574 b 100 419 56 505 71 454 z m 1356 43 b 1499 -8 1386 8 1434 -8 b 1640 43 1563 -8 1610 8 b 1685 198 1670 79 1685 129 l 1685 396 b 1640 543 1685 461 1670 510 b 1499 591 1610 575 1563 591 b 1359 543 1438 591 1392 575 b 1312 396 1326 510 1312 461 l 1312 198 b 1356 43 1312 129 1326 79 z m 826 966 l 292 0 l 427 0 l 964 966 z m 1535 133 b 1499 115 1531 121 1518 115 b 1462 134 1480 115 1468 121 b 1454 206 1457 148 1454 172 l 1454 378 b 1462 450 1454 414 1457 437 b 1499 469 1468 464 1480 469 b 1534 450 1518 469 1529 464 b 1542 378 1539 437 1542 414 l 1542 206 b 1535 133 1542 170 1539 145 z m 279 509 b 243 490 275 496 262 490 b 206 510 224 490 212 496 b 198 581 201 524 198 547 l 198 753 b 208 825 198 788 202 811 b 243 845 213 838 224 845 b 278 825 262 845 273 838 b 286 753 283 811 286 788 l 286 581 b 279 509 286 544 283 521 z m 1048 133 b 1012 115 1044 121 1031 115 b 975 134 993 115 981 121 b 968 206 970 148 968 172 l 968 378 b 977 450 968 414 971 437 b 1012 469 982 464 993 469 b 1048 450 1031 469 1043 464 b 1055 378 1054 437 1055 414 l 1055 206 b 1048 133 1055 170 1053 145 z "},"ž":{"ha":631,"x_min":0,"x_max":0,"o":"m 570 578 l 570 722 l 62 722 l 62 578 l 382 578 l 62 144 l 62 0 l 570 0 l 570 144 l 250 144 z m 92 1001 l 251 792 l 378 792 l 537 1001 l 403 1001 l 315 892 l 228 1001 z "},"Š":{"ha":761,"x_min":0,"x_max":0,"o":"m 130 69 b 370 -8 187 18 267 -8 b 620 68 475 -8 559 16 b 712 289 681 119 712 193 b 465 559 712 439 631 529 l 363 576 b 264 618 319 585 286 600 b 232 697 243 637 232 663 b 269 787 232 735 244 765 b 374 819 293 808 327 819 b 480 788 420 819 456 810 b 521 686 505 766 518 732 l 696 686 b 602 898 689 777 658 848 b 378 972 547 948 473 972 b 144 894 281 972 202 945 b 56 684 85 842 56 773 b 315 416 56 534 141 445 l 406 401 b 503 361 450 395 483 381 b 533 274 524 340 533 312 b 380 148 533 190 483 148 b 258 180 326 148 285 159 b 208 292 231 202 214 239 l 35 292 b 130 69 42 194 73 121 z m 155 1237 l 313 1028 l 441 1028 l 600 1237 l 465 1237 l 378 1130 l 290 1237 z "},"Ž":{"ha":701,"x_min":0,"x_max":0,"o":"m 663 160 l 240 160 l 651 800 l 651 959 l 50 959 l 50 800 l 454 800 l 42 160 l 42 0 l 663 0 z m 126 1237 l 286 1028 l 412 1028 l 572 1237 l 438 1237 l 350 1130 l 263 1237 z "},"†":{"ha":757,"x_min":0,"x_max":0,"o":"m 682 500 l 682 658 l 471 658 l 471 959 l 289 959 l 289 658 l 75 658 l 75 500 l 289 500 l 289 -217 l 471 -217 l 471 500 z "},"–":{"ha":579,"x_min":0,"x_max":0,"o":"m 0 560 l 0 400 l 579 400 l 579 560 z "},"—":{"ha":1156,"x_min":0,"x_max":0,"o":"m 0 560 l 0 400 l 1157 400 l 1157 560 z "},"¸":{"ha":694,"x_min":0,"x_max":0,"o":"m 312 18 l 217 -217 l 374 -217 l 449 18 z "},"˜":{"ha":694,"x_min":0,"x_max":0,"o":"m 151 933 l 151 808 b 209 852 175 830 195 845 b 256 863 222 859 237 863 b 334 838 278 863 304 854 b 384 817 353 827 370 821 b 430 810 397 812 412 810 b 487 823 452 810 471 814 b 543 869 503 833 521 848 l 543 996 b 486 951 518 974 499 958 b 438 940 472 944 457 940 b 361 964 416 940 391 948 b 311 986 342 975 324 982 b 263 993 297 990 282 993 b 206 979 241 993 222 989 b 151 933 190 970 172 955 z "}," ":{"ha":317,"x_min":0,"x_max":0,"o":""}}}
